<svg width="874" height="477" viewBox="0 0 874 477" fill="none" xmlns="http://www.w3.org/2000/svg">
<path d="M1.58008 64.2632C26.8263 37.7547 44.6461 17.8141 79.2443 5.02781C89.1253 1.37614 99.1622 2.06604 109.52 2.06604C115.564 2.06604 117.447 11.849 120.709 16.5458C132.83 34.0004 134.577 90.9191 103.926 90.9191C86.4782 90.9191 91.313 69.8053 99.1539 62.6178C118.238 45.1243 142.082 32.6589 169.085 39.0882C190.886 44.279 213.142 50.5606 232.434 62.6178C254.087 76.1511 292.294 92.5783 300.061 120.537C308.274 150.105 277.295 167.928 262.874 187.341C254.076 199.184 246.556 212.352 232.598 212.352C217.146 212.352 235.342 185.079 242.964 182.734C277.772 172.024 297.276 195.252 326.058 211.035C362.045 230.77 392.227 258.673 423.468 284.915C435.274 294.832 445.209 314.631 459.009 321.937C488.924 337.775 527.304 337.404 555.76 317.659C576.669 303.151 603.63 300.418 626.514 290.016C634.216 286.515 653.44 276.823 662.055 281.131C678.474 289.34 670.94 324.159 670.94 339.708C670.94 355.126 664.204 363.979 658.928 378.046C653.381 392.838 632.733 411.901 647.246 430.042C659.461 445.311 682.252 462.367 702.203 464.267C721.576 466.112 738.422 479.957 757.49 468.38C768.074 461.954 787.541 459.646 789.411 444.686C790.416 436.643 806.236 427.061 812.447 421.979C830.858 406.916 852.427 441.959 841.242 455.381C824.12 475.927 798.296 487.513 798.296 450.939C798.296 436.557 808.23 428.657 821.99 425.599C831.399 423.508 839.6 422.412 849.304 422.637C858.374 422.848 863.193 428.561 872.34 428.561" stroke="#F05454" stroke-width="3" stroke-linecap="round"/>
</svg>
