<svg xmlns="http://www.w3.org/2000/svg" viewBox="0 0 325.49 127.67"><defs><style>.cls-1,.cls-2{fill:#fff;}.cls-2{fill-rule:evenodd;}</style></defs><title>Asset 1</title><g id="Layer_2" data-name="Layer 2"><g id="Layer_1-2" data-name="Layer 1"><path class="cls-1" d="M37.47,71.5c.3,7.6-3.59,13.47-3.39,21l-.18.17-.34-.43c-.29-7.39-3.59-13.87-3.22-21.22a41.71,41.71,0,0,1,7.13.44"/><path class="cls-1" d="M28.6,78.19c1.41,4.72.72,10.31,2.26,15,3.57,6.59,0,14.41-.26,21.39l-2.35,12.79c-9.54-1-19.42-8.35-22.61-17.74a29,29,0,0,1,8.69-32.44A30.81,30.81,0,0,1,26.6,71.5a40.87,40.87,0,0,1,2,6.69"/><path class="cls-1" d="M52.69,79.5c-2.13,4-5.18,7.52-7.48,11.39-2.48,4.56-6.54,8.48-8.61,13.22-.78.91-1.67,2.24-2.87,2.52-.35-2.52,1-4.83,1-7.31C35.6,93.8,36,88.1,38.34,83.23l2.43-10.87c4.31,1.55,8.53,3.53,11.92,7.14"/><path class="cls-1" d="M58.52,110.37c-4.22,10.35-14.94,17-25.92,17.3-.78-2-.59-4.35-.87-6.52-.59-8.28,6.94-13.63,10-20.61,2.16-4.67,6.44-8.87,10.35-12.44a31.54,31.54,0,0,0,3.05-5.65c5.95,7.44,7.28,19,3.39,27.92"/><path class="cls-2" d="M82.66,28.47a8.2,8.2,0,0,0,1.86.81,7.94,7.94,0,0,0,2.41.36,9.86,9.86,0,0,0,6.27-2.19Q96,25.25,96,20.19q0-5.4-2.46-7.93T86,9.73H82.66V28.47M77,9.73H71.51V8.84H87.32Q94,8.84,98,11.4t4,8.29a9,9,0,0,1-4.18,8.14,17.92,17.92,0,0,1-9.91,2.7,11.84,11.84,0,0,1-5.21-.94V47.06h5.66V48H71.51v-.89H77Z"/><path class="cls-2" d="M124.48,47.89a8.41,8.41,0,0,0,7-3.13,17,17,0,0,0,3.36-7.42,45.67,45.67,0,0,0,.86-9,47.65,47.65,0,0,0-.81-9,16.37,16.37,0,0,0-3.3-7.34,8.55,8.55,0,0,0-7.1-3.14,8.42,8.42,0,0,0-7,3.14,17,17,0,0,0-3.36,7.42,45.64,45.64,0,0,0-.86,8.94,48.54,48.54,0,0,0,.8,9,16.59,16.59,0,0,0,3.3,7.34,8.55,8.55,0,0,0,7.1,3.13m0-39.88q7,0,12.29,6A21.13,21.13,0,0,1,142,28.39a21.23,21.23,0,0,1-5.19,14.44q-5.17,5.94-12.34,6t-12.28-6A21.1,21.1,0,0,1,107,28.39,21.21,21.21,0,0,1,112.14,14Q117.33,8,124.48,8Z"/><path class="cls-2" d="M157.16,27.42h2.78c3.44,0,6-.67,7.76-2s2.61-3.59,2.61-6.7a10,10,0,0,0-2-6.48c-1.33-1.66-3.79-2.48-7.38-2.48h-3.77V27.42M151.5,9.73H146V8.84h17a19.69,19.69,0,0,1,9.62,2.06q3.69,2.05,3.69,7.79a6.87,6.87,0,0,1-3.66,6.51,22.77,22.77,0,0,1-8.21,2.56q5.26.55,7.63,2.35c1.57,1.21,2.56,3.54,3,7l.78,6.77a4.55,4.55,0,0,0,1.08,2.8,2.72,2.72,0,0,0,1.81.69,6.4,6.4,0,0,0,2.27-.55l.33.72a11.5,11.5,0,0,1-2,.53,14.79,14.79,0,0,1-2.58.19c-3.07,0-5-.71-5.9-2.13s-1.55-4-2-7.85L168.42,35A8.57,8.57,0,0,0,166.56,30c-1-1.15-2.95-1.72-5.79-1.72h-3.61V47.06h5.66V48H146v-.89h5.54Z"/><path class="cls-1" d="M197.34,9.73h-1.17q-7.54,0-9.82,1.91t-2.27,8.68h-.89V8.84h33.95V20.32h-.89c0-4.47-.76-7.36-2.27-8.65s-4.77-1.94-9.76-1.94H203V47.06h5.72V48H191.62v-.89h5.72V9.73"/><path class="cls-2" d="M238.73,47.89a8.43,8.43,0,0,0,7-3.13,17.17,17.17,0,0,0,3.36-7.42,45.68,45.68,0,0,0,.85-9,47.68,47.68,0,0,0-.8-9,16.59,16.59,0,0,0-3.3-7.34,8.55,8.55,0,0,0-7.1-3.14,8.44,8.44,0,0,0-7,3.14,17,17,0,0,0-3.35,7.42,44.89,44.89,0,0,0-.86,8.94,47.71,47.71,0,0,0,.8,9,16.59,16.59,0,0,0,3.3,7.34,8.54,8.54,0,0,0,7.1,3.13m0-39.88q7.05,0,12.29,6a21.13,21.13,0,0,1,5.24,14.4,21.23,21.23,0,0,1-5.19,14.44q-5.17,5.94-12.34,6t-12.29-6a21.14,21.14,0,0,1-5.24-14.41A21.21,21.21,0,0,1,226.39,14Q231.58,8,238.73,8Z"/><path class="cls-1" d="M0,0V56.79H66.05V0ZM46.68,9.79H45.24a2.36,2.36,0,0,0-2.19,1.13,6.86,6.86,0,0,0-.7,3.52V35.15q0,6.33-3.63,9.92t-11,3.6q-6.83,0-10.9-3.68T12.73,34.88V9.79H8.41v-1H25.88v1H21.39V34.16q0,6.09,2,9.3c1.35,2.14,3.93,3.56,7.68,3.21,3-.27,4.67-1,6.56-2.87s2.82-4.7,2.82-8.31V14.44a6.05,6.05,0,0,0-.8-3.57,2.37,2.37,0,0,0-2.36-1.08H35.7v-1h11Zm8.8,37.44a4,4,0,0,1-5.58,0,3.83,3.83,0,0,1-1.14-2.8,3.93,3.93,0,1,1,7.86,0A3.83,3.83,0,0,1,55.48,47.23Z"/><path class="cls-1" d="M108.2,72.11,107.28,74a4.83,4.83,0,0,0-2.93-.89,4.08,4.08,0,0,0-3,1.18,3.94,3.94,0,0,0-1.18,3,4.28,4.28,0,0,0,4.59,4.52,7.52,7.52,0,0,0,2.79-.59l.44,2a8.17,8.17,0,0,1-1.71.61c-.33.06-.66.12-1,.16a9.08,9.08,0,0,1-1.06,0,6.6,6.6,0,0,1-4.6-1.57,6.52,6.52,0,0,1-2.14-5.08,6.4,6.4,0,0,1,1.94-4.76,6.64,6.64,0,0,1,4.8-1.77A6.45,6.45,0,0,1,108.2,72.11Zm12.51,6.76a7.49,7.49,0,0,1-.38,2.67A3.53,3.53,0,0,1,119,83.16a6.15,6.15,0,0,1-3.58.92,6.24,6.24,0,0,1-3.6-.92,3.59,3.59,0,0,1-1.37-1.6,7.53,7.53,0,0,1-.36-2.69V71.13h2.4V79c0,1.89,1,2.83,3,2.83A2.5,2.5,0,0,0,118.28,79V71.13h2.43ZM267,72l-1,2.17a9.17,9.17,0,0,0-3.29-.9,2.55,2.55,0,0,0-1.37.31,1,1,0,0,0-.5.86c0,.47.4.91,1.21,1.35a17.82,17.82,0,0,1,3.8,2.44,3,3,0,0,1,.88,2.28,3.23,3.23,0,0,1-1.15,2.63,5.13,5.13,0,0,1-3.32,1h-.57l-.56-.06a10.41,10.41,0,0,1-2.66-.89l-.3-.15-.52-.23,1-2.23,1.07.55a5.58,5.58,0,0,0,.74.33,5,5,0,0,0,1.82.37,2.37,2.37,0,0,0,1.37-.35,1.06,1.06,0,0,0,.48-.92c0-.49-.36-.95-1.11-1.37l-2-1.12a9.07,9.07,0,0,1-2.31-1.71,2.79,2.79,0,0,1-.63-1.81,3.26,3.26,0,0,1,.5-1.77,1.83,1.83,0,0,1,.4-.5,3.44,3.44,0,0,1,.54-.44,5.6,5.6,0,0,1,3.2-.85,8.2,8.2,0,0,1,2.38.33,7.57,7.57,0,0,1,.83.29Zm58.53,0-1,2.17a9.22,9.22,0,0,0-3.29-.9,2.55,2.55,0,0,0-1.37.31,1,1,0,0,0-.5.86c0,.47.4.91,1.21,1.35a17.94,17.94,0,0,1,3.79,2.44,3,3,0,0,1,.89,2.28,3.2,3.2,0,0,1-1.16,2.63,5.1,5.1,0,0,1-3.31,1h-.58l-.55-.06a10.29,10.29,0,0,1-2.66-.89l-.31-.15-.52-.23,1-2.23,1.08.55a6.24,6.24,0,0,0,.73.33,5,5,0,0,0,1.83.37,2.37,2.37,0,0,0,1.37-.35,1.08,1.08,0,0,0,.48-.92c0-.49-.37-.95-1.12-1.37l-2-1.12a8.89,8.89,0,0,1-2.31-1.71,2.8,2.8,0,0,1-.64-1.81,3.27,3.27,0,0,1,.51-1.77,1.83,1.83,0,0,1,.4-.5,3,3,0,0,1,.54-.44,5.56,5.56,0,0,1,3.19-.85,8.22,8.22,0,0,1,2.39.33,7.57,7.57,0,0,1,.83.29ZM85.1,73.19H79.66v3.27h4.46v2H79.66v5.33H77.23V71.13H85.1ZM97,83.83H94.42l-1-3.13H89.17l-1,3.13H85.59l4.6-12.7h2.17Zm34.51,0h-7.62V71.13h2.42V81.78h5.2Zm13.37-6.39A6.34,6.34,0,0,1,143.09,82,6.69,6.69,0,0,1,138,83.83h-4.69V71.13H138A6.72,6.72,0,0,1,143.11,73,6.25,6.25,0,0,1,144.84,77.44Zm11.9,6.39H154.2l-1-3.13h-4.26l-1,3.13h-2.54l4.6-12.7h2.18ZM170,77.44A6.39,6.39,0,0,1,168.23,82a6.72,6.72,0,0,1-5.14,1.86h-4.7V71.13h4.72A6.73,6.73,0,0,1,168.25,73,6.29,6.29,0,0,1,170,77.44Zm10.2,6.39h-8V71.13h7.74v2.06h-5.31v3.14H179v2.06h-4.35v3.39h5.56Zm18.67-6.39A6.39,6.39,0,0,1,197.1,82,6.72,6.72,0,0,1,192,83.83h-4.7V71.13H192A6.73,6.73,0,0,1,197.12,73,6.29,6.29,0,0,1,198.85,77.44Zm10.2,6.39h-8V71.13h7.74v2.06h-5.31v3.14h4.35v2.06h-4.35v3.39h5.56Zm16.19-3.38q0,3.38-3.93,3.38h-5.18V71.13h4.6a4.8,4.8,0,0,1,3.18.85,2.89,2.89,0,0,1,1,2.27,3.38,3.38,0,0,1-.18,1.1,2.51,2.51,0,0,1-.55.9,2.74,2.74,0,0,1-.89.64,3,3,0,0,1-1.19.29,3.1,3.1,0,0,1,2.29.9A3.27,3.27,0,0,1,225.24,80.45Zm10.37,3.38h-8V71.13h7.74v2.06h-5.31v3.14h4.35v2.06h-4.35v3.39h5.56Zm10,0H238V71.13h2.42V81.78h5.2Zm11.58,0h-2.54l-1-3.13h-4.25l-1,3.13h-2.54l4.6-12.7h2.17Zm26.54,0H281.2l-1-3.13H276l-1,3.13h-2.54l4.6-12.7h2.17Zm11,0h-2.65l-2.91-5.08h-1.21v5.08h-2.43V71.13h4.24c.46,0,.86,0,1.21,0s.66.1.92.15a2.74,2.74,0,0,1,1.31.75,3.55,3.55,0,0,1,1,2.76,3.76,3.76,0,0,1-.69,2.38,3.61,3.61,0,0,1-2,1.18Zm10.51-10.64h-3.81V83.83H299V73.19h-3.81V71.13h10Zm9.89,10.64h-8V71.13h7.73v2.06h-5.31v3.14h4.35v2.06h-4.35v3.39h5.56Zm-92.53-3.65c0-1.2-.77-1.79-2.33-1.79h-1.58v3.5h1.58a3.64,3.64,0,0,0,1.46-.23A1.51,1.51,0,0,0,222.58,80.18Zm-80.35-2.72A4,4,0,0,0,140.76,74a5.08,5.08,0,0,0-3-.75H135.8V81.7h1.92a4.69,4.69,0,0,0,3.33-1.1A4.05,4.05,0,0,0,142.23,77.46Zm25.13,0A4,4,0,0,0,165.9,74a5.08,5.08,0,0,0-3-.75h-1.93V81.7h1.93a4.71,4.71,0,0,0,3.33-1.1A4,4,0,0,0,167.36,77.46Zm28.87,0A4,4,0,0,0,194.77,74a5.1,5.1,0,0,0-3-.75H189.8V81.7h1.93a4.71,4.71,0,0,0,3.33-1.1A4,4,0,0,0,196.23,77.46ZM92.77,78.64,91.28,74l-1.46,4.6Zm59.77,0L151.06,74l-1.46,4.6Zm100.47,0L251.53,74l-1.47,4.6Zm26.54,0L278.07,74l-1.47,4.6Zm12.18-3.75a1.55,1.55,0,0,0-.5-1.31,2.9,2.9,0,0,0-1.71-.39h-1.58v3.5h1.58C291,76.69,291.73,76.1,291.73,74.89Zm-69.52-.22c0-1.07-.65-1.61-2-1.61h-1.58v3.27h1.45C221.52,76.33,222.21,75.77,222.21,74.67Z"/><path class="cls-1" d="M87.2,101.62a4.26,4.26,0,0,1-1.46,3.54,5.25,5.25,0,0,1-3.48,1.17,5.48,5.48,0,0,1-3.53-1.19,4.24,4.24,0,0,1-1.46-3.52V93.26h1.58v7.88a7.26,7.26,0,0,0,.13,1.69,2.37,2.37,0,0,0,.6,1,3.75,3.75,0,0,0,5.31,0,2.37,2.37,0,0,0,.6-1,6.74,6.74,0,0,0,.13-1.69V93.26H87.2Zm33.2-8.36-4.93,13h-1l-5-13h1.69l3.76,9.92a2.81,2.81,0,0,1,.13.61,1.74,1.74,0,0,1,.12-.61l3.61-9.92Zm31,.85-.73,1.31c-.29-.17-.54-.31-.76-.42a4,4,0,0,0-.57-.23,5.86,5.86,0,0,0-1.75-.27,2.89,2.89,0,0,0-1.76.48,1.57,1.57,0,0,0-.67,1.31,1.55,1.55,0,0,0,.6,1.23,15.93,15.93,0,0,0,2.54,1.56,10.7,10.7,0,0,1,2,1.29,2.89,2.89,0,0,1,1,2.31,3.17,3.17,0,0,1-1.12,2.58,4.61,4.61,0,0,1-3.06,1,6,6,0,0,1-2.34-.43,7.92,7.92,0,0,1-1.64-.94l.81-1.25a5.59,5.59,0,0,0,.83.52,4.46,4.46,0,0,0,.63.31,5.39,5.39,0,0,0,1.83.33,2.91,2.91,0,0,0,1.79-.5,1.77,1.77,0,0,0,.62-1.43,1.65,1.65,0,0,0-.2-.9,2.62,2.62,0,0,0-1.07-1l-.75-.43c-.37-.17-.81-.42-1.37-.71-1.81-1-2.71-2.08-2.71-3.33A3,3,0,0,1,144.71,94a4.71,4.71,0,0,1,3-.93,6.65,6.65,0,0,1,2.14.31A8.14,8.14,0,0,1,151.43,94.11Zm88.22,5.51a6.53,6.53,0,0,1-1.81,4.73,6,6,0,0,1-4.56,1.87,6.09,6.09,0,0,1-4.58-1.87,7.07,7.07,0,0,1,0-9.45A6.09,6.09,0,0,1,233.28,93a6,6,0,0,1,4.56,1.87A6.39,6.39,0,0,1,239.65,99.62Zm30.2,0a6.53,6.53,0,0,1-1.81,4.73,6,6,0,0,1-4.56,1.87,6.09,6.09,0,0,1-4.58-1.87,7.07,7.07,0,0,1,0-9.45A6.09,6.09,0,0,1,263.48,93,6,6,0,0,1,268,94.9,6.39,6.39,0,0,1,269.85,99.62Zm36.3,0a6.53,6.53,0,0,1-1.81,4.73,6,6,0,0,1-4.56,1.87,6.13,6.13,0,0,1-4.59-1.87,7.1,7.1,0,0,1,0-9.45A6.13,6.13,0,0,1,299.78,93a6,6,0,0,1,4.56,1.87A6.39,6.39,0,0,1,306.15,99.62Zm-204.67,6.46H99.66l-6.41-9.91a1.82,1.82,0,0,0-.1-.19,1,1,0,0,1-.15-.25,3.88,3.88,0,0,1-.35-.77v11H91.07V93.26h2.06L99.42,103l.1.15a1.48,1.48,0,0,1,.08.13c0,.06.06.14.09.24a3.14,3.14,0,0,0,.14.36s0,.06,0,.08a.51.51,0,0,0,0,.11V93.26h1.57Zm5.78-.11h-1.58V93.26h1.58ZM130,106h-7.32V93.26h7.14v1.33h-5.56v4.24h4.6v1.33h-4.6v4.48H130Zm11.64,0h-1.81l-3.5-5.45h-1.7V106h-1.57V93.26h3.87c.38,0,.73,0,1,0a7.43,7.43,0,0,1,.77.16,2.59,2.59,0,0,1,.63.29,5.83,5.83,0,0,1,.58.46,3.31,3.31,0,0,1,1,2.48,3.47,3.47,0,0,1-1.12,2.64,3.76,3.76,0,0,1-1.92,1Zm14.51,0h-1.58V93.26h1.58ZM171,99.56a6.86,6.86,0,0,1-1.71,4.56,5.12,5.12,0,0,1-1.94,1.43,7.86,7.86,0,0,1-2.76.42h-4.21V93.26h4.23A6.29,6.29,0,0,1,169.15,95,6,6,0,0,1,171,99.56ZM183.22,106h-1.69l-1.31-3.75h-5.14L173.77,106h-1.69l4.73-13.07h1.7Zm12.88-6.41a6.82,6.82,0,0,1-1.72,4.56,5,5,0,0,1-1.94,1.43,7.76,7.76,0,0,1-2.75.42h-4.22V93.26h4.24A6.31,6.31,0,0,1,194.29,95,6,6,0,0,1,196.1,99.56ZM206.47,106h-7.31V93.26h7.14v1.33h-5.56v4.24h4.59v1.33h-4.59v4.48h5.73ZM225,99.56a6.82,6.82,0,0,1-1.72,4.56,5,5,0,0,1-1.94,1.43,7.8,7.8,0,0,1-2.75.42h-4.22V93.26h4.24A6.31,6.31,0,0,1,223.16,95,6,6,0,0,1,225,99.56ZM255.59,97a4.73,4.73,0,0,1-.31,1.77,3.74,3.74,0,0,1-.91,1.37A4,4,0,0,1,253,101a5.35,5.35,0,0,1-1.89.31l-.73,0-1.23-.11V106h-1.58V93.26h4a4.16,4.16,0,0,1,3.1,1A3.76,3.76,0,0,1,255.59,97Zm25.9,9h-1.81l-3.5-5.45h-1.69V106h-1.58V93.26h3.87c.38,0,.73,0,1,0a6.47,6.47,0,0,1,.77.16,2.59,2.59,0,0,1,.63.29,5.83,5.83,0,0,1,.58.46,3.31,3.31,0,0,1,1,2.48,3.47,3.47,0,0,1-1.12,2.64,3.76,3.76,0,0,1-1.92,1Zm10.76-11.38H288V106h-1.58V94.59H282.2V93.26h10.05Zm-54.33,5A5.33,5.33,0,0,0,236.55,96,4.26,4.26,0,0,0,230,96a5.61,5.61,0,0,0,0,7.35,4.3,4.3,0,0,0,6.56,0A5.35,5.35,0,0,0,237.92,99.62Zm30.2,0A5.38,5.38,0,0,0,266.75,96a4.26,4.26,0,0,0-6.56,0,5.61,5.61,0,0,0,0,7.35,4.3,4.3,0,0,0,6.56,0A5.4,5.4,0,0,0,268.12,99.62Zm36.29,0A5.37,5.37,0,0,0,303.05,96a4.26,4.26,0,0,0-6.56,0,5.61,5.61,0,0,0,0,7.35,4.3,4.3,0,0,0,6.56,0A5.39,5.39,0,0,0,304.41,99.62Zm-135.1-.08A4.75,4.75,0,0,0,167.88,96a4.81,4.81,0,0,0-3.56-1.43h-2.4v10h2.4a4.52,4.52,0,0,0,3.43-1.15,5.07,5.07,0,0,0,.63-.85,5.32,5.32,0,0,0,.5-1,6.74,6.74,0,0,0,.31-1.06A4.92,4.92,0,0,0,169.31,99.54Zm25.13,0A4.78,4.78,0,0,0,193,96a4.84,4.84,0,0,0-3.56-1.43h-2.41v10h2.41a4.5,4.5,0,0,0,3.42-1.15,5.11,5.11,0,0,0,.64-.85,7,7,0,0,0,.5-1,8,8,0,0,0,.31-1.06A5.61,5.61,0,0,0,194.44,99.54Zm28.87,0A4.78,4.78,0,0,0,221.89,96a4.84,4.84,0,0,0-3.56-1.43h-2.41v10h2.41a4.5,4.5,0,0,0,3.42-1.15,5.72,5.72,0,0,0,.64-.85,7,7,0,0,0,.5-1,6.7,6.7,0,0,0,.3-1.06A4.92,4.92,0,0,0,223.31,99.54Zm-43.59,1.23L177.66,95l-2.08,5.81ZM254,97.12a2.68,2.68,0,0,0-.71-2,2.79,2.79,0,0,0-2-.54H249.1v5.24a15.42,15.42,0,0,0,1.69.11,4.07,4.07,0,0,0,1.66-.25,2.27,2.27,0,0,0,1.1-1A3,3,0,0,0,254,97.12Zm-114.73-.41a2.11,2.11,0,0,0-.69-1.75,3.07,3.07,0,0,0-1.85-.37h-2.06v4.6h2.06A2.21,2.21,0,0,0,139.22,96.71Zm139.87,0a2.11,2.11,0,0,0-.7-1.75,3.05,3.05,0,0,0-1.84-.37h-2.06v4.6h2.06A2.22,2.22,0,0,0,279.09,96.71Z"/></g></g></svg>