<?xml version="1.0" encoding="utf-8"?>
<!-- Generator: Adobe Illustrator 28.4.1, SVG Export Plug-In . SVG Version: 6.00 Build 0)  -->
<svg version="1.1" id="Layer_1" xmlns="http://www.w3.org/2000/svg" xmlns:xlink="http://www.w3.org/1999/xlink" x="0px" y="0px"
	 viewBox="0 0 1324.5 340.4" style="enable-background:new 0 0 1324.5 340.4;" xml:space="preserve">
<g>
	<g>
		<g>
			<path d="M602,112.3v-61h39.2v8.2h-29.4v17.7h26.7v8.2h-26.7v26.8H602z"/>
			<path d="M682.4,104.6H682c-1.9,4.7-5.6,8.7-13,8.7c-9.1,0-15.2-6.2-15.2-17.1v-29h9.5v27.6c0,7.2,3.2,10.7,9.3,10.7
				c4.9,0,9.8-2.5,9.8-7.8V67.2h9.5v45.1h-9.5V104.6z"/>
			<path d="M706.6,112.3V67.2h9.5v7.7h0.4c1.9-4.7,5.6-8.7,13-8.7c9.1,0,15.2,6.2,15.2,17.1v29h-9.5V84.7c0-7.2-3.2-10.7-9.3-10.7
				c-4.9,0-9.8,2.5-9.8,7.8v30.6H706.6z"/>
			<path d="M787.7,104.6h-0.5c-2.6,5.4-7,8.7-13.6,8.7c-10.6,0-17.4-8.1-17.4-23.6s6.8-23.6,17.4-23.6c6.6,0,11,3.3,13.6,8.7h0.5
				V47.6h9.5v64.6h-9.5V104.6z M787.7,97.2v-15c0-5.5-4.7-8.3-10.2-8.3c-7.2,0-11.3,4.8-11.3,12.1v7.3c0,7.3,4.1,12.1,11.3,12.1
				C782.9,105.5,787.7,102.7,787.7,97.2z"/>
			<path d="M847,112.3c-5.4,0-8.1-3.1-8.6-7.6H838c-1.7,5.4-6.5,8.6-13.5,8.6c-9.2,0-15.1-5.2-15.1-13.6c0-8.7,6.4-13.5,19.7-13.5
				h8.6v-3.5c0-6-3.2-9.2-9.7-9.2c-5.8,0-9.2,2.4-11.6,6.2l-5.7-4.6c2.5-4.9,8.6-9,18.2-9c11.4,0,18.3,5.7,18.3,16v22.6h5.7v7.5H847
				z M837.7,98.8v-6.6h-8.5c-7,0-10.3,2.2-10.3,6.2v1.7c0,4,3.1,6.1,8.2,6.1C833.2,106.3,837.7,103.3,837.7,98.8z"/>
			<path d="M901.8,76.8l-7.4,4c-1.6-4.2-4.9-6.8-10.1-6.8c-7.2,0-11.4,4.8-11.4,12v7.5c0,7.1,4.1,12,11.5,12c5.6,0,9-2.8,11.1-7.2
				l7,4.3c-2.8,6.2-8.4,10.5-17.4,10.7l-0.9,4l0.3,0.3c1.2-0.3,2.5-0.6,3.8-0.6c3.4,0,6.1,1.9,6.1,5.9c0,5.3-5,7.5-10.5,7.5
				c-5.2,0-8.2-2-9.5-3.7l3.6-4.1c1,1.3,2.9,2.4,5.5,2.4c2.2,0,3.8-0.8,3.8-2.5c0-1.4-1-2.9-6.2-3.5l-2.2-0.3l1.2-5.9
				c-10.9-1.7-17.3-10.4-17.3-23.2c0-14.4,8-23.6,21.3-23.6C893.5,66.1,899,70.5,901.8,76.8z"/>
			<path d="M951.8,112.3c-5.4,0-8.1-3.1-8.6-7.6h-0.4c-1.7,5.4-6.5,8.6-13.5,8.6c-9.2,0-15.1-5.2-15.1-13.6
				c0-8.7,6.4-13.5,19.7-13.5h8.6v-3.5c0-6-3.2-9.2-9.7-9.2c-5.8,0-9.2,2.4-11.6,6.2l-5.7-4.6c2.5-4.9,8.6-9,18.2-9
				c11.4,0,18.3,5.7,18.3,16v22.6h5.7v7.5H951.8z M933.6,57.5c-2.6-1.3-4.6-2-6.5-2c-1.9,0-3.3,0.8-5.1,2.3l-3.6-4.5
				c1.7-2.7,4.7-5,9-5c2.9,0,4.9,1,6.8,2c2.6,1.3,4.6,2,6.5,2c1.9,0,3.3-0.8,5.1-2.3l3.6,4.5c-1.7,2.7-4.7,5-9,5
				C937.5,59.5,935.5,58.5,933.6,57.5z M942.5,98.8v-6.6H934c-7,0-10.3,2.2-10.3,6.2v1.7c0,4,3.1,6.1,8.2,6.1
				C938,106.3,942.5,103.3,942.5,98.8z"/>
			<path d="M966.1,89.7c0-14.4,8.1-23.6,21.4-23.6c13.3,0,21.4,9.2,21.4,23.6c0,14.4-8.1,23.6-21.4,23.6
				C974.2,113.3,966.1,104.1,966.1,89.7z M998.9,93.1v-6.8c0-8.4-4.5-12.7-11.4-12.7c-6.9,0-11.4,4.3-11.4,12.7v6.8
				c0,8.4,4.5,12.7,11.4,12.7C994.4,105.8,998.9,101.5,998.9,93.1z"/>
			<path d="M601.4,172h9.5v7.7h0.5c2.6-5.4,7-8.7,13.6-8.7c10.6,0,17.4,8.1,17.4,23.6s-6.8,23.6-17.4,23.6c-6.6,0-11-3.3-13.6-8.7
				h-0.5v25.2h-9.5V172z M632.4,198.2v-7.3c0-7.3-4.1-12.1-11.3-12.1c-5.5,0-10.2,2.8-10.2,8.3v15c0,5.5,4.7,8.3,10.2,8.3
				C628.3,210.3,632.4,205.5,632.4,198.2z"/>
			<path d="M689.8,217.1c-5.4,0-8.1-3.1-8.6-7.6h-0.4c-1.7,5.4-6.5,8.6-13.5,8.6c-9.2,0-15.1-5.2-15.1-13.6
				c0-8.7,6.4-13.5,19.7-13.5h8.6v-3.5c0-6-3.2-9.2-9.7-9.2c-5.8,0-9.2,2.4-11.6,6.2l-5.7-4.6c2.5-4.9,8.6-9,18.2-9
				c11.4,0,18.3,5.7,18.3,16v22.6h5.7v7.5H689.8z M680.5,203.6v-6.6H672c-7,0-10.3,2.2-10.3,6.2v1.7c0,4,3.1,6.1,8.2,6.1
				C676,211.1,680.5,208.1,680.5,203.6z"/>
			<path d="M705.9,209.4h12v-29.7h-12V172h21.5v12h0.5c1.7-6.3,5.7-12,14.8-12h5.4v9.1h-8.9c-7.8,0-11.9,5.2-11.9,11.4v16.9h16.3
				v7.7h-37.8V209.4z"/>
			<path d="M794.6,217.1c-5.4,0-8.1-3.1-8.6-7.6h-0.4c-1.7,5.4-6.5,8.6-13.5,8.6c-9.2,0-15.1-5.2-15.1-13.6
				c0-8.7,6.4-13.5,19.7-13.5h8.6v-3.5c0-6-3.2-9.2-9.7-9.2c-5.8,0-9.2,2.4-11.6,6.2l-5.7-4.6c2.5-4.9,8.6-9,18.2-9
				c11.4,0,18.3,5.7,18.3,16v22.6h5.7v7.5H794.6z M785.3,203.6v-6.6h-8.5c-7,0-10.3,2.2-10.3,6.2v1.7c0,4,3.1,6.1,8.2,6.1
				C780.8,211.1,785.3,208.1,785.3,203.6z"/>
			<path d="M899.4,217.1c-5.4,0-8.1-3.1-8.6-7.6h-0.4c-1.7,5.4-6.5,8.6-13.5,8.6c-9.2,0-15.1-5.2-15.1-13.6
				c0-8.7,6.4-13.5,19.7-13.5h8.6v-3.5c0-6-3.2-9.2-9.7-9.2c-5.8,0-9.2,2.4-11.6,6.2l-5.7-4.6c2.5-4.9,8.6-9,18.2-9
				c11.4,0,18.3,5.7,18.3,16v22.6h5.7v7.5H899.4z M890.1,203.6v-6.6h-8.5c-7,0-10.3,2.2-10.3,6.2v1.7c0,4,3.1,6.1,8.2,6.1
				C885.6,211.1,890.1,208.1,890.1,203.6z"/>
			<path d="M966.3,186.6c0-20.2,7.4-31.5,22.9-31.5c11.8,0,17.2,6.8,20,15.1l-8.8,3c-1.8-5.6-4.4-10-11.3-10
				c-8.6,0-12.4,7.1-12.4,18.3v10.3c0,11.2,3.8,18.3,12.4,18.3c6.9,0,9.4-4.4,11.3-10l8.8,3c-2.8,8.3-8.2,15.1-20,15.1
				C973.8,218.1,966.3,206.8,966.3,186.6z"/>
			<path d="M1022.5,209.4h15.4v-29.7h-15.4V172h24.9v37.4h14.4v7.7h-39.3V209.4z M1036.1,158.6v-1.8c0-2.9,1.7-5.2,6.5-5.2
				c4.8,0,6.6,2.3,6.6,5.2v1.8c0,2.9-1.7,5.2-6.5,5.2C1037.9,163.8,1036.1,161.5,1036.1,158.6z"/>
			<path d="M1071.3,194.6c0-14.5,8.4-23.7,21.2-23.7c12.7,0,20.7,9.1,20.7,22.4v3.6h-32.3v1.5c0,7.1,4.7,12.1,12.5,12.1
				c5.8,0,10-2.7,12.5-6.9l5.9,5.2c-3.1,5.2-9.3,9.3-18.6,9.3C1079.4,218.1,1071.3,208.9,1071.3,194.6z M1097.2,149.5l10.5,13.1
				l-5.1,3.7l-10.3-10.1l-10.4,10.1l-4.8-3.7l10.5-13.1H1097.2z M1080.9,190.2v0.6h22.6v-0.9c0-7.1-4.4-11.7-11-11.7
				C1085.7,178.2,1080.9,183.2,1080.9,190.2z"/>
			<path d="M1125.8,217.1V172h9.5v7.7h0.4c1.9-4.7,5.6-8.7,13-8.7c9.1,0,15.2,6.2,15.2,17.1v29h-9.5v-27.6c0-7.2-3.2-10.7-9.3-10.7
				c-4.9,0-9.8,2.5-9.8,7.8v30.6H1125.8z"/>
			<path d="M1177.3,194.5c0-14.4,8-23.6,21.3-23.6c9.3,0,14.8,4.4,17.6,10.7l-7.4,4c-1.6-4.2-4.9-6.8-10.1-6.8
				c-7.2,0-11.4,4.8-11.4,12v7.5c0,7.1,4.1,12,11.5,12c5.6,0,9-2.8,11.1-7.2l7,4.3c-2.9,6.3-8.7,10.7-18.2,10.7
				C1185.3,218.1,1177.3,208.9,1177.3,194.5z"/>
			<path d="M1232.1,209.4h15.4v-29.7h-15.4V172h24.9v37.4h14.4v7.7h-39.3V209.4z M1245.7,158.6v-1.8c0-2.9,1.7-5.2,6.5-5.2
				c4.8,0,6.6,2.3,6.6,5.2v1.8c0,2.9-1.7,5.2-6.5,5.2C1247.5,163.8,1245.7,161.5,1245.7,158.6z"/>
			<path d="M1318.6,217.1c-5.4,0-8.1-3.1-8.6-7.6h-0.4c-1.7,5.4-6.5,8.6-13.5,8.6c-9.2,0-15.1-5.2-15.1-13.6
				c0-8.7,6.4-13.5,19.7-13.5h8.6v-3.5c0-6-3.2-9.2-9.7-9.2c-5.8,0-9.2,2.4-11.6,6.2l-5.7-4.6c2.5-4.9,8.6-9,18.2-9
				c11.4,0,18.3,5.7,18.3,16v22.6h5.7v7.5H1318.6z M1309.3,203.6v-6.6h-8.5c-7,0-10.3,2.2-10.3,6.2v1.7c0,4,3.1,6.1,8.2,6.1
				C1304.8,211.1,1309.3,208.1,1309.3,203.6z"/>
			<path d="M599.7,299.4c0-14.5,8.4-23.7,21.2-23.7c12.7,0,20.7,9.1,20.7,22.4v3.6h-32.3v1.5c0,7.1,4.7,12.1,12.5,12.1
				c5.8,0,10-2.7,12.5-6.9l5.9,5.2c-3.1,5.2-9.3,9.3-18.6,9.3C607.8,322.9,599.7,313.7,599.7,299.4z M609.3,295v0.6h22.6v-0.9
				c0-7.1-4.4-11.7-11-11.7C614.1,283,609.3,288,609.3,295z"/>
			<path d="M742.2,321.9c-5.4,0-8.1-3.1-8.6-7.6h-0.4c-1.7,5.4-6.5,8.6-13.5,8.6c-9.2,0-15.1-5.2-15.1-13.6
				c0-8.7,6.4-13.5,19.7-13.5h8.6v-3.5c0-6-3.2-9.2-9.7-9.2c-5.8,0-9.2,2.4-11.6,6.2l-5.7-4.6c2.5-4.9,8.6-9,18.2-9
				c11.4,0,18.3,5.7,18.3,16v22.6h5.7v7.5H742.2z M732.9,308.4v-6.6h-8.5c-7,0-10.3,2.2-10.3,6.2v1.7c0,4,3.1,6.1,8.2,6.1
				C728.4,315.9,732.9,312.9,732.9,308.4z"/>
			<path d="M835.2,269.1v52.8h-9.8v-52.8h-19.1v-8.2h48v8.2H835.2z"/>
			<path d="M861.7,299.4c0-14.5,8.4-23.7,21.2-23.7c12.7,0,20.7,9.1,20.7,22.4v3.6h-32.3v1.5c0,7.1,4.7,12.1,12.5,12.1
				c5.8,0,10-2.7,12.5-6.9l5.9,5.2c-3.1,5.2-9.3,9.3-18.6,9.3C869.8,322.9,861.7,313.7,861.7,299.4z M871.3,295v0.6h22.6v-0.9
				c0-7.1-4.4-11.7-11-11.7C876.1,283,871.3,288,871.3,295z"/>
			<path d="M915.3,299.3c0-14.4,8-23.6,21.3-23.6c9.3,0,14.8,4.4,17.6,10.7l-7.4,4c-1.6-4.2-4.9-6.8-10.1-6.8
				c-7.2,0-11.4,4.8-11.4,12v7.5c0,7.1,4.1,12,11.5,12c5.6,0,9-2.8,11.1-7.2l7,4.3c-2.9,6.3-8.7,10.7-18.2,10.7
				C923.3,322.9,915.3,313.7,915.3,299.3z"/>
			<path d="M968.6,321.9v-45.1h9.5v7.7h0.4c1.9-4.7,5.6-8.7,13-8.7c9.1,0,15.2,6.2,15.2,17.1v29h-9.5v-27.6c0-7.2-3.2-10.7-9.3-10.7
				c-4.9,0-9.8,2.5-9.8,7.8v30.6H968.6z"/>
			<path d="M1018.5,299.3c0-14.4,8.1-23.6,21.4-23.6c13.3,0,21.4,9.2,21.4,23.6c0,14.4-8.1,23.6-21.4,23.6
				C1026.6,322.9,1018.5,313.7,1018.5,299.3z M1051.3,302.7v-6.8c0-8.4-4.5-12.7-11.4-12.7c-6.9,0-11.4,4.3-11.4,12.7v6.8
				c0,8.4,4.5,12.7,11.4,12.7C1046.8,315.4,1051.3,311.1,1051.3,302.7z"/>
			<path d="M1072.6,314.2h14.9v-49.3h-14.9v-7.7h24.5v56.9h14.9v7.7h-39.4V314.2z"/>
			<path d="M1123.3,299.3c0-14.4,8.1-23.6,21.4-23.6c13.3,0,21.4,9.2,21.4,23.6c0,14.4-8.1,23.6-21.4,23.6
				C1131.4,322.9,1123.3,313.7,1123.3,299.3z M1156.1,302.7v-6.8c0-8.4-4.5-12.7-11.4-12.7c-6.9,0-11.4,4.3-11.4,12.7v6.8
				c0,8.4,4.5,12.7,11.4,12.7C1151.6,315.4,1156.1,311.1,1156.1,302.7z"/>
			<path d="M1197,340.4c-15.5,0-21-4.1-21-10.8c0-4.9,2.9-7.4,7.9-8.7v-0.9c-3.1-1.1-5-3.1-5-6.6c0-4.5,3.4-6.5,8.1-7.6v-0.4
				c-5.4-2.5-8.6-7.3-8.6-13.8c0-9.6,7.2-15.8,18.3-15.8c3.1,0,6,0.5,8.5,1.5v-1.5c0-3.5,2-6.1,6-6.1h8.2v7.5h-10.5v2.1
				c3.9,2.7,6.1,6.9,6.1,12.3c0,9.6-7.2,15.7-18.3,15.7c-2,0-3.8-0.2-5.6-0.5c-2.1,0.5-4.7,1.9-4.7,4.4c0,2.8,3.1,3.1,7,3.1h10.1
				c12.1,0,17.1,5.1,17.1,12.5C1220.7,336,1212.9,340.4,1197,340.4z M1203.3,322.4h-15.6c-2.2,1-3.3,2.7-3.3,5.1
				c0,3.4,2.6,6.2,9.3,6.2h7.1c7.2,0,11.1-2.2,11.1-6.3C1211.7,324.3,1209.6,322.4,1203.3,322.4z M1205.7,292.7v-2.4
				c0-4.8-2.9-8-9-8s-9,3.2-9,8v2.4c0,4.8,2.9,8,9,8S1205.7,297.5,1205.7,292.7z"/>
			<path d="M1232.1,314.2h15.4v-29.7h-15.4v-7.7h24.9v37.4h14.4v7.7h-39.3V314.2z M1245.7,263.4v-1.8c0-2.9,1.7-5.2,6.5-5.2
				c4.8,0,6.6,2.3,6.6,5.2v1.8c0,2.9-1.7,5.2-6.5,5.2C1247.5,268.6,1245.7,266.3,1245.7,263.4z"/>
			<path d="M1318.6,321.9c-5.4,0-8.1-3.1-8.6-7.6h-0.4c-1.7,5.4-6.5,8.6-13.5,8.6c-9.2,0-15.1-5.2-15.1-13.6
				c0-8.7,6.4-13.5,19.7-13.5h8.6v-3.5c0-6-3.2-9.2-9.7-9.2c-5.8,0-9.2,2.4-11.6,6.2l-5.7-4.6c2.5-4.9,8.6-9,18.2-9
				c11.4,0,18.3,5.7,18.3,16v22.6h5.7v7.5H1318.6z M1309.3,308.4v-6.6h-8.5c-7,0-10.3,2.2-10.3,6.2v1.7c0,4,3.1,6.1,8.2,6.1
				C1304.8,315.9,1309.3,312.9,1309.3,308.4z"/>
		</g>
	</g>
	<g>
		<path d="M88.5,135.7H156v29H88.5V294H156v29H0v-29h55.6V164.7H0v-29h43.6c6.6,0,12-5.4,12-12v-18.3c0-7.4,2.9-14.5,8.2-19.8
			L95,54.5c5.2-5.2,12.4-8,19.8-8H156v28.9H88.5V135.7z"/>
		<path d="M248,46.4h70.5v29h-97.2V217h97.2v29H248c-7.4,0-14.5-2.9-19.8-8.2l-31.7-31.7c-5.2-5.2-8.2-12.4-8.2-19.8v-80.3
			c0-7.4,2.9-14.5,8.2-19.8l31.7-31.7C233.4,49.4,240.6,46.4,248,46.4z"/>
		<path d="M403.7,189.1V75.5H349v-29h42.7c6.6,0,12-5.4,12-12V0h32.9v46.4h70.9v29h-70.9V217h70.9v29H457c-8.1,0-15.7-3.5-21-9.5
			l-25.4-29C406.1,202.4,403.7,195.8,403.7,189.1z"/>
		<rect x="188.3" y="294" width="319.1" height="29"/>
	</g>
</g>
</svg>
