<svg xmlns="http://www.w3.org/2000/svg" viewBox="0 0 187.16 58.01"><defs><style>.cls-1{fill:#fff;}</style></defs><title>Asset 3</title><g id="Layer_2" data-name="Layer 2"><g id="Layer_1-2" data-name="Layer 1"><g id="logos"><path class="cls-1" d="M158,25.41c-9.39-2.48-11.61-3.45-11.61-7,0-2.49,2.22-4.56,6.77-4.56a27.59,27.59,0,0,1,14.09,5.39l5.66-8.71a30.37,30.37,0,0,0-19.75-6.76c-8.7,0-15.33,4-17.82,10.5a28.77,28.77,0,0,0-21.27-8.71H95.45v32.6L81.36,5.25H70.86L52.77,47.65H33.29L42,40.88C51.38,33.56,55.94,29,55.94,20c0-10.22-7-16.72-18.37-16.72-9.39,0-14.64,3.73-20,11L26,21.13c4-4.83,7-7.32,11.05-7.32h1.11a6.64,6.64,0,0,1,6.21,7c0,4.56-2.49,7.6-9.12,13L17.27,48.34V58H60.5l4-10.22H99.59l4.28,9.67h10.22c16.16,0,27.21-10.78,27.77-25.14a39,39,0,0,0,10.22,3.45c9,2.21,10.77,3.73,10.77,6.77s-2.76,5.11-7.59,5.11a21.09,21.09,0,0,1-10.78-3L138.54,54A34.46,34.46,0,0,0,155,58c11.6,0,19.75-5.94,19.75-16.72V41C175,32.18,168.79,28.17,158,25.41ZM68.65,37.57l7.6-18.65,7.87,18.65Zm61.6-3.73a14.65,14.65,0,0,1-15.61,14.09h-7V16.3H116a14.88,14.88,0,0,1,14.36,15.6A7.88,7.88,0,0,0,130.25,33.84Z"/><rect class="cls-1" x="176.66" y="47.38" width="10.5" height="10.22"/><polygon class="cls-1" points="12.43 57.88 0 57.88 0 24.31 12.43 17.68 12.43 57.88"/><rect class="cls-1" x="0.28" width="12.43" height="12.15"/></g></g></g></svg>