<?xml version="1.0" encoding="UTF-8"?>
<svg id="Layer_1" data-name="Layer 1" xmlns="http://www.w3.org/2000/svg" viewBox="0 0 975.84 504.28">
  <defs>
    <style>
      .cls-1 {
        fill: #fff;
        stroke-width: 0px;
      }
    </style>
  </defs>
  <polygon class="cls-1" points="522.45 142.89 532.23 142.89 532.23 181.84 522.45 181.84 522.45 142.89 522.45 142.89"/>
  <path class="cls-1" d="M538.89,142.89h16.28c8.69,0,15.9,4.64,15.9,13.71v10.98c0,9.67-7.65,14.26-15.84,14.26h-16.33v-38.95h0ZM554.62,173.86c3.55,0,6.66-2.24,6.66-6.23v-10.71c0-3.77-3.06-6.06-6.94-6.06h-5.68v23h5.95Z"/>
  <polygon class="cls-1" points="591.06 167.74 578.61 167.74 578.61 161.41 591.06 161.41 591.06 149.01 597.45 149.01 597.45 161.41 609.85 161.41 609.85 167.74 597.45 167.74 597.45 180.14 591.06 180.14 591.06 167.74 591.06 167.74"/>
  <path class="cls-1" d="M641.08,142.89h17.04c8.85,0,13.93,5.08,13.93,12.29,0,4.75-2.29,9.39-7.32,11.47l8.9,15.19h-10.65l-7.7-13.77h-4.42v13.77h-9.78v-38.95h0ZM656.86,160.86c3.55,0,5.68-2.02,5.68-5.19,0-3.33-2.18-5.14-5.68-5.14h-6.01v10.32h6.01Z"/>
  <polygon class="cls-1" points="678.05 142.89 706.73 142.89 706.73 150.81 687.83 150.81 687.83 158.24 703.73 158.24 703.73 166.11 687.83 166.11 687.83 173.86 706.84 173.86 706.84 181.84 678.05 181.84 678.05 142.89 678.05 142.89"/>
  <path class="cls-1" d="M709.72,175.45l6.17-5.52c2.02,2.84,5.79,4.92,9.89,4.92,2.95,0,6.12-.93,6.12-3.66,0-2.4-1.97-3.28-4.37-3.93l-6.72-1.75c-5.3-1.42-9.23-4.48-9.23-10.76,0-7.27,6.06-12.51,14.69-12.51,6.88,0,11.58,1.91,14.64,6.06l-6.34,5.24c-1.8-2.46-5.08-3.66-8.14-3.66-2.84,0-5.3.98-5.3,3.66,0,2.24,2.35,3,5.3,3.77l6.12,1.64c5.57,1.42,9.34,4.75,9.34,10.82,0,8.47-7.65,12.73-15.68,12.73-6.83,0-12.78-1.86-16.5-7.05h0Z"/>
  <polygon class="cls-1" points="746.86 142.89 775.54 142.89 775.54 150.81 756.64 150.81 756.64 158.24 772.54 158.24 772.54 166.11 756.64 166.11 756.64 173.86 775.65 173.86 775.65 181.84 746.86 181.84 746.86 142.89 746.86 142.89"/>
  <path class="cls-1" d="M792.69,142.84h10.43l13.66,39h-9.94l-2.35-7.27h-13.93l-2.4,7.27h-9.29l13.82-39h0ZM802.09,166.93l-4.48-14.09h-.16l-4.53,14.09h9.18Z"/>
  <path class="cls-1" d="M820.55,142.89h17.04c8.85,0,13.93,5.08,13.93,12.29,0,4.75-2.29,9.39-7.32,11.47l8.9,15.19h-10.65l-7.7-13.77h-4.42v13.77h-9.78v-38.95h0ZM836.33,160.86c3.55,0,5.68-2.02,5.68-5.19,0-3.33-2.18-5.14-5.68-5.14h-6.01v10.32h6.01Z"/>
  <path class="cls-1" d="M856.54,168.45v-11.91c0-9.56,7.76-14.31,16.39-14.31,7.54,0,15.79,3.82,15.79,12.84v1.8h-9.18v-.87c0-4.1-3.44-5.79-6.45-5.79-3.44,0-6.77,1.8-6.77,6.23v11.8c0,3.99,2.9,6.28,6.88,6.28,3,0,6.34-1.75,6.34-5.79v-.93h9.18v1.91c0,8.96-8.03,12.78-15.57,12.78-8.57,0-16.6-4.31-16.6-14.04h0Z"/>
  <polygon class="cls-1" points="894.18 142.89 903.95 142.89 903.95 157.86 916.63 157.86 916.63 142.89 926.4 142.89 926.4 181.84 916.63 181.84 916.63 166.32 903.95 166.32 903.95 181.84 894.18 181.84 894.18 142.89 894.18 142.89"/>
  <polygon class="cls-1" points="522.45 208.44 532.23 208.44 532.23 247.38 522.45 247.38 522.45 208.44 522.45 208.44"/>
  <polygon class="cls-1" points="539.05 208.44 548.5 208.44 563.36 230.45 563.47 230.45 563.47 208.44 572.48 208.44 572.48 247.38 563.41 247.38 548.17 224.5 548.07 224.5 548.07 247.38 539.05 247.38 539.05 208.44 539.05 208.44"/>
  <path class="cls-1" d="M576.74,240.99l6.17-5.52c2.02,2.84,5.79,4.92,9.89,4.92,2.95,0,6.12-.93,6.12-3.66,0-2.4-1.97-3.28-4.37-3.93l-6.72-1.75c-5.3-1.42-9.23-4.48-9.23-10.76,0-7.26,6.06-12.51,14.69-12.51,6.88,0,11.58,1.91,14.64,6.06l-6.34,5.24c-1.8-2.46-5.08-3.66-8.14-3.66-2.84,0-5.3.98-5.3,3.66,0,2.24,2.35,3,5.3,3.77l6.12,1.64c5.57,1.42,9.34,4.75,9.34,10.82,0,8.47-7.65,12.73-15.68,12.73-6.83,0-12.78-1.86-16.5-7.05h0Z"/>
  <polygon class="cls-1" points="622.44 216.25 611.4 216.25 611.4 208.44 643.25 208.44 643.25 216.25 632.21 216.25 632.21 247.38 622.44 247.38 622.44 216.25 622.44 216.25"/>
  <polygon class="cls-1" points="648.05 208.44 657.83 208.44 657.83 247.38 648.05 247.38 648.05 208.44 648.05 208.44"/>
  <polygon class="cls-1" points="673.72 216.25 662.69 216.25 662.69 208.44 694.54 208.44 694.54 216.25 683.5 216.25 683.5 247.38 673.72 247.38 673.72 216.25 673.72 216.25"/>
  <path class="cls-1" d="M699.18,233.57v-25.13h9.72v24.47c0,4.37,2.29,7.1,6.66,7.1,4.1,0,6.45-2.46,6.45-7.1v-24.47h9.56v24.74c0,9.72-7.21,14.86-16.33,14.86-9.89,0-16.06-4.7-16.06-14.48h0Z"/>
  <polygon class="cls-1" points="747.3 216.25 736.27 216.25 736.27 208.44 768.11 208.44 768.11 216.25 757.08 216.25 757.08 247.38 747.3 247.38 747.3 216.25 747.3 216.25"/>
  <polygon class="cls-1" points="772.92 208.44 801.59 208.44 801.59 216.36 782.69 216.36 782.69 223.79 798.59 223.79 798.59 231.65 782.69 231.65 782.69 239.41 801.7 239.41 801.7 247.38 772.92 247.38 772.92 208.44 772.92 208.44"/>
  <polygon class="cls-1" points="822.77 208.44 851.01 208.44 851.01 216.36 832.55 216.36 832.55 224.22 847.79 224.22 847.79 232.14 832.55 232.14 832.55 247.38 822.77 247.38 822.77 208.44 822.77 208.44"/>
  <path class="cls-1" d="M854.47,233.78v-11.25c0-9.89,8.08-14.75,16.44-14.75s16.71,4.64,16.71,14.69v10.82c0,10.16-8.36,14.75-16.5,14.75-8.74,0-16.66-4.21-16.66-14.26h0ZM877.85,233.62v-11.53c0-4.1-3.22-6.34-6.88-6.34s-6.72,1.86-6.72,6.39v11.42c0,4.15,2.9,6.45,6.88,6.45,3.44,0,6.72-1.97,6.72-6.39h0Z"/>
  <path class="cls-1" d="M893.47,208.44h17.04c8.85,0,13.93,5.08,13.93,12.29,0,4.75-2.29,9.39-7.32,11.47l8.9,15.19h-10.65l-7.7-13.77h-4.42v13.77h-9.78v-38.95h0ZM909.26,226.41c3.55,0,5.68-2.02,5.68-5.19,0-3.33-2.19-5.14-5.68-5.14h-6.01v10.32h6.01Z"/>
  <path class="cls-1" d="M522.45,273.99h16.28c8.69,0,15.9,4.64,15.9,13.71v10.98c0,9.67-7.65,14.26-15.84,14.26h-16.33v-38.95h0ZM538.18,304.96c3.55,0,6.66-2.24,6.66-6.23v-10.71c0-3.77-3.06-6.06-6.94-6.06h-5.68v23h5.95Z"/>
  <polygon class="cls-1" points="560.46 273.99 589.14 273.99 589.14 281.91 570.24 281.91 570.24 289.34 586.14 289.34 586.14 297.2 570.24 297.2 570.24 304.96 589.25 304.96 589.25 312.93 560.46 312.93 560.46 273.99 560.46 273.99"/>
  <path class="cls-1" d="M592.3,306.54l6.17-5.52c2.02,2.84,5.79,4.92,9.89,4.92,2.95,0,6.12-.93,6.12-3.66,0-2.4-1.97-3.28-4.37-3.93l-6.72-1.75c-5.3-1.42-9.23-4.48-9.23-10.76,0-7.27,6.06-12.51,14.69-12.51,6.88,0,11.58,1.91,14.64,6.06l-6.34,5.24c-1.8-2.46-5.08-3.66-8.14-3.66-2.84,0-5.3.98-5.3,3.66,0,2.24,2.35,3,5.3,3.77l6.12,1.64c5.57,1.42,9.34,4.75,9.34,10.82,0,8.47-7.65,12.73-15.68,12.73-6.83,0-12.78-1.86-16.5-7.05h0Z"/>
  <polygon class="cls-1" points="629.6 273.99 639.38 273.99 639.38 312.93 629.6 312.93 629.6 273.99 629.6 273.99"/>
  <path class="cls-1" d="M645.22,299.55v-11.91c0-9.56,7.76-14.31,16.39-14.31,7.54,0,15.95,3.55,15.95,12.62v1.42h-9.18v-.76c0-4.04-3.5-5.52-6.5-5.52-3.39,0-6.88,1.8-6.88,6.23v12.02c0,3.99,2.89,6.45,6.88,6.45,3.33,0,6.34-1.64,6.34-5.74v-.98h-7.87v-7.21h17.21v8.96c0,8.96-8.19,12.78-15.73,12.78-8.63,0-16.61-4.31-16.61-14.04h0Z"/>
  <polygon class="cls-1" points="683.13 273.99 692.58 273.99 707.44 296 707.55 296 707.55 273.99 716.56 273.99 716.56 312.93 707.49 312.93 692.25 290.05 692.14 290.05 692.14 312.93 683.13 312.93 683.13 273.99 683.13 273.99"/>
  <polygon class="cls-1" points="726.34 312.88 723.22 312.88 723.22 303.59 732.4 303.59 732.4 312.39 728.85 320.58 724.54 320.58 726.34 312.88 726.34 312.88"/>
  <polygon class="cls-1" points="753.87 273.99 766 273.99 773.92 294.09 774.03 294.09 781.79 273.99 793.75 273.99 793.75 312.93 784.74 312.93 784.74 288.13 784.63 288.13 777.2 307.69 770.48 307.69 763 288.19 762.89 288.19 762.89 312.93 753.87 312.93 753.87 273.99 753.87 273.99"/>
  <polygon class="cls-1" points="800.58 273.99 829.25 273.99 829.25 281.91 810.35 281.91 810.35 289.34 826.25 289.34 826.25 297.2 810.35 297.2 810.35 304.96 829.36 304.96 829.36 312.93 800.58 312.93 800.58 273.99 800.58 273.99"/>
  <path class="cls-1" d="M835.59,273.99h16.28c8.68,0,15.9,4.64,15.9,13.71v10.98c0,9.67-7.65,14.26-15.84,14.26h-16.33v-38.95h0ZM851.32,304.96c3.55,0,6.66-2.24,6.66-6.23v-10.71c0-3.77-3.06-6.06-6.94-6.06h-5.68v23h5.95Z"/>
  <polygon class="cls-1" points="873.6 273.99 883.38 273.99 883.38 312.93 873.6 312.93 873.6 273.99 873.6 273.99"/>
  <path class="cls-1" d="M901.19,273.93h10.43l13.66,39h-9.94l-2.35-7.26h-13.93l-2.4,7.26h-9.29l13.82-39h0ZM910.58,298.02l-4.48-14.09h-.16l-4.53,14.09h9.18Z"/>
  <path class="cls-1" d="M535.68,338.66h10.43l13.66,39h-9.94l-2.35-7.26h-13.93l-2.4,7.26h-9.29l13.82-39h0ZM545.07,362.75l-4.48-14.09h-.16l-4.53,14.09h9.18Z"/>
  <polygon class="cls-1" points="565.88 338.72 575.33 338.72 590.19 360.73 590.3 360.73 590.3 338.72 599.31 338.72 599.31 377.66 590.24 377.66 575 354.78 574.9 354.78 574.9 377.66 565.88 377.66 565.88 338.72 565.88 338.72"/>
  <path class="cls-1" d="M608.32,338.72h16.28c8.68,0,15.9,4.64,15.9,13.71v10.98c0,9.67-7.65,14.26-15.84,14.26h-16.33v-38.95h0ZM624.06,369.69c3.55,0,6.66-2.24,6.66-6.23v-10.71c0-3.77-3.06-6.06-6.94-6.06h-5.68v23h5.95Z"/>
  <path class="cls-1" d="M667.98,364.26v-11.91c0-9.56,7.76-14.31,16.39-14.31,7.54,0,15.79,3.82,15.79,12.84v1.8h-9.18v-.87c0-4.1-3.44-5.79-6.45-5.79-3.44,0-6.77,1.8-6.77,6.23v11.8c0,3.99,2.89,6.28,6.88,6.28,3,0,6.34-1.75,6.34-5.79v-.93h9.18v1.91c0,8.96-8.03,12.78-15.57,12.78-8.58,0-16.61-4.31-16.61-14.04h0Z"/>
  <path class="cls-1" d="M707.8,363.82v-25.13h9.72v24.47c0,4.37,2.29,7.1,6.66,7.1,4.1,0,6.45-2.46,6.45-7.1v-24.47h9.56v24.74c0,9.72-7.21,14.86-16.33,14.86-9.89,0-16.06-4.7-16.06-14.48h0Z"/>
  <polygon class="cls-1" points="749.04 338.69 758.82 338.69 758.82 369.66 777.33 369.66 777.33 377.64 749.04 377.64 749.04 338.69 749.04 338.69"/>
  <polygon class="cls-1" points="789 346.5 777.97 346.5 777.97 338.69 809.81 338.69 809.81 346.5 798.78 346.5 798.78 377.64 789 377.64 789 346.5 789 346.5"/>
  <path class="cls-1" d="M816.64,363.82v-25.13h9.72v24.47c0,4.37,2.29,7.1,6.66,7.1,4.1,0,6.45-2.46,6.45-7.1v-24.47h9.56v24.74c0,9.72-7.21,14.86-16.33,14.86-9.89,0-16.06-4.7-16.06-14.48h0Z"/>
  <path class="cls-1" d="M857.88,338.69h17.04c8.85,0,13.93,5.08,13.93,12.29,0,4.75-2.29,9.39-7.32,11.47l8.9,15.19h-10.65l-7.7-13.77h-4.42v13.77h-9.78v-38.95h0ZM873.67,356.66c3.55,0,5.68-2.02,5.68-5.19,0-3.33-2.19-5.14-5.68-5.14h-6.01v10.32h6.01Z"/>
  <polygon class="cls-1" points="897.21 338.69 925.88 338.69 925.88 346.61 906.99 346.61 906.99 354.04 922.88 354.04 922.88 361.91 906.99 361.91 906.99 369.66 925.99 369.66 925.99 377.64 897.21 377.64 897.21 338.69 897.21 338.69"/>
  <path class="cls-1" d="M787.03,400.29h8.54c4.18,0,6.58,2.57,6.58,6.06,0,3.09-1.9,6.27-6.51,6.27h-3.89v6.53h-4.73v-18.86h0ZM794.8,408.99c1.69,0,2.75-1,2.75-2.51,0-1.61-1.08-2.49-2.78-2.49h-3.01v5h3.04Z"/>
  <path class="cls-1" d="M804.06,412.56v-5.45c0-4.79,3.91-7.14,7.96-7.14s8.09,2.25,8.09,7.11v5.24c0,4.92-4.05,7.14-7.99,7.14-4.23,0-8.07-2.04-8.07-6.9h0ZM815.38,412.48v-5.58c0-1.98-1.56-3.07-3.33-3.07s-3.25.9-3.25,3.09v5.53c0,2.01,1.4,3.12,3.33,3.12,1.67,0,3.25-.95,3.25-3.09h0Z"/>
  <path class="cls-1" d="M822.86,400.29h8.25c4.28,0,6.74,2.46,6.74,5.95,0,2.3-1.11,4.55-3.54,5.55l4.31,7.35h-5.16l-3.73-6.66h-2.14v6.66h-4.73v-18.86h0ZM830.5,408.99c1.72,0,2.75-.98,2.75-2.51,0-1.61-1.06-2.49-2.75-2.49h-2.91v5h2.91Z"/>
  <polygon class="cls-1" points="845.15 404.07 839.81 404.07 839.81 400.29 855.23 400.29 855.23 404.07 849.89 404.07 849.89 419.15 845.15 419.15 845.15 404.07 845.15 404.07"/>
  <path class="cls-1" d="M857.4,412.46v-12.16h4.71v11.85c0,2.12,1.11,3.44,3.23,3.44,1.98,0,3.12-1.19,3.12-3.44v-11.85h4.63v11.98c0,4.71-3.49,7.19-7.91,7.19-4.79,0-7.77-2.27-7.77-7.01h0Z"/>
  <path class="cls-1" d="M875.75,412.67v-5.77c0-4.63,3.75-6.93,7.93-6.93,3.65,0,7.72,1.72,7.72,6.11v.69h-4.44v-.37c0-1.96-1.69-2.67-3.15-2.67-1.64,0-3.33.87-3.33,3.02v5.82c0,1.93,1.4,3.12,3.33,3.12,1.61,0,3.07-.79,3.07-2.78v-.48h-3.81v-3.49h8.33v4.34c0,4.34-3.97,6.19-7.62,6.19-4.18,0-8.04-2.09-8.04-6.8h0Z"/>
  <path class="cls-1" d="M898.73,400.27h5.05l6.61,18.88h-4.81l-1.14-3.52h-6.74l-1.16,3.52h-4.5l6.69-18.88h0ZM903.28,411.93l-2.17-6.82h-.08l-2.19,6.82h4.44Z"/>
  <polygon class="cls-1" points="912.22 400.29 916.95 400.29 916.95 415.29 925.92 415.29 925.92 419.15 912.22 419.15 912.22 400.29 912.22 400.29"/>
  <path class="cls-1" d="M164.99,361.32h106.43v-63.92h80.13v-89.2h-80.13v-64.97h-106.43v218.09h0ZM273.99,465.18H48.23V143.24h116.76V38.95h107.8c97.44,0,179.93,41.85,179.93,145.26v126.14c0,111.19-83.69,154.83-178.74,154.83h0Z"/>
</svg>