<?xml version="1.0" encoding="utf-8"?>
<!-- Generator: Adobe Illustrator 27.0.0, SVG Export Plug-In . SVG Version: 6.00 Build 0)  -->
<svg version="1.1" id="Layer_1" xmlns="http://www.w3.org/2000/svg" xmlns:xlink="http://www.w3.org/1999/xlink" x="0px" y="0px"
	 viewBox="0 0 209.6 318.9" style="enable-background:new 0 0 209.6 318.9;" xml:space="preserve">
<style type="text/css">
	.st0{fill-rule:evenodd;clip-rule:evenodd;fill:#FFFFFF;}
	.st1{fill:#FFFFFF;}
</style>
<path class="st0" d="M167,190.4h3.6v5.5h4.7v-5.5h3.6v14.4h-3.6V199h-4.7v5.8H167V190.4z M153,199.9v-4.4c0-3.5,2.9-5.3,6.1-5.3
	c2.8,0,5.9,1.4,5.9,4.8v0.7h-3.4v-0.3c0-1.5-1.3-2.1-2.4-2.1c-1.3,0-2.5,0.7-2.5,2.3v4.4c0,1.5,1.1,2.3,2.6,2.3
	c1.1,0,2.3-0.6,2.3-2.1v-0.3h3.4v0.7c0,3.3-3,4.7-5.8,4.7C156,205.1,153,203.5,153,199.9z M145.5,197.1c1.3,0,2.1-0.8,2.1-1.9
	c0-1.2-0.8-1.9-2.1-1.9h-2.2v3.8L145.5,197.1L145.5,197.1z M139.7,190.4h6.3c3.3,0,5.2,1.9,5.2,4.6c0,1.8-0.9,3.5-2.7,4.3l3.3,5.6
	h-3.9l-2.9-5.1h-1.6v5.1h-3.6v-14.5H139.7z M145.5,197.1c1.3,0,2.1-0.8,2.1-1.9c0-1.2-0.8-1.9-2.1-1.9h-2.2v3.8L145.5,197.1
	L145.5,197.1z M139.7,190.4h6.3c3.3,0,5.2,1.9,5.2,4.6c0,1.8-0.9,3.5-2.7,4.3l3.3,5.6h-3.9l-2.9-5.1h-1.6v5.1h-3.6v-14.5H139.7z
	 M145.5,197.1c1.3,0,2.1-0.8,2.1-1.9c0-1.2-0.8-1.9-2.1-1.9h-2.2v3.8L145.5,197.1L145.5,197.1z M139.7,190.4h6.3
	c3.3,0,5.2,1.9,5.2,4.6c0,1.8-0.9,3.5-2.7,4.3l3.3,5.6h-3.9l-2.9-5.1h-1.6v5.1h-3.6v-14.5H139.7z M132.8,199.4l-1.7-5.2l-1.7,5.2
	H132.8z M129.4,190.4h3.9l5.1,14.5h-3.7l-0.9-2.7h-5.2l-0.9,2.7h-3.4L129.4,190.4z M132.8,199.4l-1.7-5.2l-1.7,5.2H132.8z
	 M129.4,190.4h3.9l5.1,14.5h-3.7l-0.9-2.7h-5.2l-0.9,2.7h-3.4L129.4,190.4z M132.8,199.4l-1.7-5.2l-1.7,5.2H132.8z M129.4,190.4h3.9
	l5.1,14.5h-3.7l-0.9-2.7h-5.2l-0.9,2.7h-3.4L129.4,190.4z M112.4,190.4H123v2.9h-7v2.8h5.9v2.9H116v2.9h7v3h-10.7L112.4,190.4
	L112.4,190.4z M98.6,202.5l2.3-2c0.7,1.1,2.1,1.8,3.7,1.8c1.1,0,2.3-0.3,2.3-1.4c0-0.9-0.7-1.2-1.6-1.5l-2.5-0.6
	c-2-0.5-3.4-1.7-3.4-4c0-2.7,2.2-4.6,5.4-4.6c2.6,0,4.3,0.7,5.4,2.2l-2.3,1.9c-0.7-0.9-1.9-1.4-3-1.4s-2,0.4-2,1.4
	c0,0.8,0.9,1.1,2,1.4l2.3,0.6c2.1,0.5,3.5,1.8,3.5,4c0,3.1-2.8,4.7-5.8,4.7C102.2,205.1,100,204.4,98.6,202.5z M86.9,190.4h10.6v2.9
	h-7v2.8h5.9v2.9h-5.9v2.9h7v3H86.9V190.4z M79,197.1c1.3,0,2.1-0.8,2.1-1.9c0-1.2-0.8-1.9-2.1-1.9h-2.2v3.8L79,197.1L79,197.1z
	 M73.2,190.4h6.3c3.3,0,5.2,1.9,5.2,4.6c0,1.8-0.9,3.5-2.7,4.3l3.3,5.6h-3.9l-2.9-5.1h-1.6v5.1h-3.6v-14.5H73.2z M79,197.1
	c1.3,0,2.1-0.8,2.1-1.9c0-1.2-0.8-1.9-2.1-1.9h-2.2v3.8L79,197.1L79,197.1z M73.2,190.4h6.3c3.3,0,5.2,1.9,5.2,4.6
	c0,1.8-0.9,3.5-2.7,4.3l3.3,5.6h-3.9l-2.9-5.1h-1.6v5.1h-3.6v-14.5H73.2z M79,197.1c1.3,0,2.1-0.8,2.1-1.9c0-1.2-0.8-1.9-2.1-1.9
	h-2.2v3.8L79,197.1L79,197.1z M73.2,190.4h6.3c3.3,0,5.2,1.9,5.2,4.6c0,1.8-0.9,3.5-2.7,4.3l3.3,5.6h-3.9l-2.9-5.1h-1.6v5.1h-3.6
	v-14.5H73.2z"/>
<path class="st0" d="M173.1,248l-1.7-5.2l-1.7,5.2H173.1z M169.6,239h3.9l5.1,14.5h-3.7l-0.9-2.7h-5.2l-0.9,2.7h-3.4L169.6,239z
	 M159.4,239h3.6v14.4h-3.6V239z M151.1,250.5c1.3,0,2.5-0.8,2.5-2.3v-4c0-1.4-1.1-2.2-2.6-2.2h-2.1v8.5H151.1z M145.3,239h6
	c3.2,0,5.9,1.7,5.9,5.1v4.1c0,3.6-2.8,5.3-5.9,5.3h-6.1V239H145.3z M132.3,239h10.6v2.9h-7v2.8h5.9v2.9h-5.9v2.9h7v3h-10.7
	L132.3,239L132.3,239z M115,239h4.5l2.9,7.5l2.9-7.5h4.4v14.4h-3.3v-9.2l-2.8,7.2h-2.5l-2.8-7.2v9.2H115V239z M104.8,253.5h-1.2V250
	h3.4v3.3l-1.3,3h-1.6L104.8,253.5z M88.7,239h3.5l5.5,8.2V239h3.3v14.4h-3.4l-5.6-8.5v8.5h-3.3V239z M74.7,248.5v-4.4
	c0-3.5,2.9-5.3,6.1-5.3c2.8,0,5.9,1.3,5.9,4.7v0.5h-3.4v-0.3c0-1.5-1.3-2-2.4-2c-1.3,0-2.6,0.7-2.6,2.3v4.5c0,1.5,1.1,2.4,2.6,2.4
	c1.2,0,2.3-0.6,2.3-2.1v-0.4h-2.9v-2.7h6.4v3.3c0,3.3-3,4.7-5.8,4.7C77.6,253.7,74.7,252.1,74.7,248.5z M68.9,239h3.6v14.4h-3.6V239
	z M55.1,251.1l2.3-2c0.7,1.1,2.1,1.8,3.7,1.8c1.1,0,2.3-0.3,2.3-1.4c0-0.9-0.7-1.2-1.6-1.5l-2.5-0.6c-2-0.5-3.4-1.7-3.4-4
	c0-2.7,2.2-4.6,5.4-4.6c2.6,0,4.3,0.7,5.4,2.2l-2.3,1.9c-0.7-0.9-1.9-1.4-3-1.4s-2,0.4-2,1.4c0,0.8,0.9,1.1,2,1.4l2.3,0.6
	c2.1,0.5,3.5,1.8,3.5,4c0,3.1-2.8,4.7-5.8,4.7C58.7,253.7,56.4,253,55.1,251.1z M43.3,239h10.6v2.9h-7v2.8h5.9v2.9h-5.9v2.9h7v3
	H43.3V239z M35,250.5c1.3,0,2.5-0.8,2.5-2.3v-4c0-1.4-1.1-2.2-2.6-2.2h-2.1v8.5H35z M29.2,239h6c3.2,0,5.9,1.7,5.9,5.1v4.1
	c0,3.6-2.8,5.3-5.9,5.3h-6.1V239H29.2z"/>
<path class="st0" d="M140.5,214.7H151v2.9h-6.8v2.9h5.7v2.9h-5.7v5.6h-3.6L140.5,214.7L140.5,214.7z M160.9,224.1v-4.3
	c0-1.5-1.2-2.3-2.6-2.3c-1.3,0-2.5,0.7-2.5,2.4v4.2c0,1.5,1.1,2.4,2.6,2.4C159.7,226.4,160.9,225.7,160.9,224.1z M152.3,224.1V220
	c0-3.7,3-5.5,6.1-5.5c3.2,0,6.2,1.7,6.2,5.4v4c0,3.8-3.1,5.5-6.1,5.5C155.2,229.4,152.3,227.9,152.3,224.1z M172.6,221.4
	c1.3,0,2.1-0.7,2.1-1.9s-0.8-1.9-2.1-1.9h-2.2v3.8L172.6,221.4L172.6,221.4z M166.7,214.7h6.3c3.3,0,5.2,1.9,5.2,4.6
	c0,1.8-0.9,3.5-2.7,4.3l3.3,5.6h-3.9l-2.9-5.1h-1.6v5.1h-3.6v-14.5H166.7z M29.2,214.7h3.6v14.4h-3.6
	C29.2,229.1,29.2,214.7,29.2,214.7z M35.3,214.7h3.5l5.5,8.2v-8.2h3.3v14.4h-3.4l-5.6-8.5v8.5h-3.3V214.7z M49.3,226.8l2.3-2
	c0.7,1.1,2.1,1.8,3.7,1.8c1.1,0,2.3-0.3,2.3-1.4c0-0.9-0.7-1.2-1.6-1.5l-2.5-0.6c-2-0.5-3.4-1.7-3.4-4c0-2.7,2.2-4.6,5.4-4.6
	c2.6,0,4.3,0.7,5.4,2.2l-2.3,1.9c-0.7-0.9-1.9-1.4-3-1.4s-2,0.4-2,1.4c0,0.8,0.9,1.1,2,1.4l2.3,0.6c2.1,0.5,3.5,1.8,3.5,4
	c0,3.1-2.8,4.7-5.8,4.7C52.9,229.4,50.7,228.7,49.3,226.8z M66.2,217.6h-4.1v-2.9H74v2.9h-4.1v11.5h-3.6v-11.5H66.2z M75.7,214.7
	h3.6v14.4h-3.6V214.7z M85.3,217.6h-4.1v-2.9H93v2.9h-4.1v11.5h-3.6V217.6z M94.7,224.1v-9.3h3.6v9.1c0,1.6,0.9,2.6,2.5,2.6
	c1.5,0,2.4-0.9,2.4-2.6v-9.1h3.5v9.2c0,3.6-2.7,5.5-6.1,5.5C97,229.4,94.7,227.7,94.7,224.1z M112.5,217.6h-4.1v-2.9h11.8v2.9h-4.1
	v11.5h-3.6C112.5,229.1,112.5,217.6,112.5,217.6z M122,214.7h10.6v2.9h-7v2.8h5.9v2.9h-5.9v2.9h7v3H122V214.7z"/>
<g>
	<rect x="29.2" y="190.4" class="st1" width="3.6" height="14.4"/>
	<polygon class="st1" points="54.6,199.7 50,199.7 50,197.3 54.6,197.3 54.6,192.7 57,192.7 57,197.3 61.6,197.3 61.6,199.7 
		57,199.7 57,204.3 54.6,204.3 	"/>
	<path class="st0" d="M41.1,201.9c1.3,0,2.5-0.8,2.5-2.3v-4c0-1.4-1.1-2.2-2.6-2.2h-2.1v8.5H41.1z M35.3,190.4h6
		c3.2,0,5.9,1.7,5.9,5.1v4.1c0,3.6-2.8,5.3-5.9,5.3h-6.1L35.3,190.4L35.3,190.4z"/>
	<path class="st0" d="M112.7,177.5H29V58.1h43.3V19.5h40c36.1,0,66.7,15.5,66.7,53.9v46.8C179,161.3,148,177.5,112.7,177.5z
		 M72.3,139h39.5v-23.7h29.7V82.2h-29.7V58.1H72.3V139z"/>
</g>
<path class="st0" d="M168.7,285.9h1.9l2.5,7h-1.8l-0.4-1.3h-2.5l-0.4,1.3h-1.7L168.7,285.9z M170.4,290.2l-0.8-2.5l-0.8,2.5H170.4z
	 M173.7,285.9h1.8v5.6h3.3v1.4h-5.1V285.9z M160.2,290.5v-2.1c0-1.7,1.4-2.6,2.9-2.6c1.4,0,2.9,0.6,2.9,2.3v0.3h-1.6v-0.1
	c0-0.7-0.6-1-1.2-1c-0.6,0-1.2,0.3-1.2,1.1v2.2c0,0.7,0.5,1.2,1.2,1.2c0.6,0,1.1-0.3,1.1-1v-0.2h-1.4v-1.3h3.1v1.6
	c0,1.6-1.5,2.3-2.8,2.3C161.6,293,160.2,292.2,160.2,290.5z M140.5,285.9h3.1c1.6,0,2.5,0.9,2.5,2.2c0,0.9-0.4,1.7-1.3,2.1l1.6,2.7
	h-1.9l-1.4-2.5h-0.8v2.5h-1.8L140.5,285.9L140.5,285.9z M143.4,289.1c0.6,0,1-0.4,1-0.9c0-0.6-0.4-0.9-1-0.9h-1.1v1.9h1.1V289.1z
	 M153.3,290.4v-4.5h1.7v4.4c0,0.8,0.4,1.3,1.2,1.3c0.7,0,1.2-0.4,1.2-1.3v-4.4h1.7v4.4c0,1.7-1.3,2.7-2.9,2.7
	C154.5,293,153.3,292.1,153.3,290.4z M148.8,287.3h-2v-1.4h5.7v1.4h-2v5.6h-1.8v-5.6H148.8z M133.6,290.4v-2c0-1.8,1.5-2.6,3-2.6
	c1.6,0,3,0.8,3,2.6v1.9c0,1.8-1.5,2.6-3,2.6C135,293,133.6,292.2,133.6,290.4z M137.8,290.4v-2.1c0-0.7-0.6-1.1-1.2-1.1
	c-0.6,0-1.2,0.3-1.2,1.1v2c0,0.7,0.5,1.2,1.2,1.2C137.2,291.5,137.8,291.2,137.8,290.4z M127.3,285.9h3.2c1.5,0,2.4,1,2.4,2.2
	c0,1.1-0.7,2.3-2.4,2.3H129v2.4h-1.8v-6.9H127.3z M130.1,289.1c0.6,0,1-0.4,1-0.9c0-0.6-0.4-0.9-1-0.9H129v1.9h1.1V289.1z"/>
<path class="st0" d="M61,263h6c3.2,0,5.9,1.7,5.9,5.1v4.1c0,3.6-2.8,5.3-5.9,5.3h-6V263z M66.8,274.5c1.3,0,2.5-0.8,2.5-2.3v-4
	c0-1.4-1.1-2.2-2.6-2.2h-2.1v8.5H66.8z M34.1,263H38l5.1,14.5h-3.7l-0.9-2.7h-5.2l-0.9,2.7H29L34.1,263z M37.6,272l-1.7-5.2
	l-1.7,5.2H37.6z M153.5,263h6.3c3.3,0,5.2,1.9,5.2,4.6c0,1.8-0.9,3.5-2.7,4.3l3.3,5.6h-3.9l-2.9-5.1h-1.6v5.1h-3.6V263H153.5z
	 M159.4,269.7c1.3,0,2.1-0.7,2.1-1.9c0-1.2-0.8-1.9-2.1-1.9h-2.2v3.8H159.4z M45.3,263h3.5l5.5,8.2V263h3.3v14.4h-3.4l-5.6-8.5v8.5
	h-3.3V263z M83.1,272.5v-4.4c0-3.5,2.9-5.3,6.1-5.3c2.8,0,5.9,1.4,5.9,4.8v0.7h-3.4V268c0-1.5-1.3-2.1-2.4-2.1
	c-1.3,0-2.5,0.7-2.5,2.3v4.4c0,1.5,1.1,2.3,2.6,2.3c1.1,0,2.3-0.6,2.3-2.1v-0.3h3.4v0.7c0,3.3-3,4.7-5.8,4.7
	C86.1,277.7,83.1,276.1,83.1,272.5z M97.9,272.3V263h3.6v9.1c0,1.6,0.9,2.6,2.5,2.6c1.5,0,2.4-0.9,2.4-2.6V263h3.5v9.2
	c0,3.6-2.7,5.5-6.1,5.5C100.2,277.7,97.9,276,97.9,272.3z M113.2,263h3.6v11.5h6.9v3h-10.5V263z M128,265.9h-4.1V263h11.8v2.9h-4.1
	v11.5H128V265.9z M138.2,272.3V263h3.6v9.1c0,1.6,0.9,2.6,2.5,2.6c1.5,0,2.4-0.9,2.4-2.6V263h3.5v9.2c0,3.6-2.7,5.5-6.1,5.5
	C140.5,277.7,138.2,276,138.2,272.3z M168.1,263h10.6v2.9h-7v2.8h5.9v2.9h-5.9v2.9h7v3H168L168.1,263L168.1,263z"/>
</svg>
