<svg width="197" height="522" viewBox="0 0 197 522" fill="none" xmlns="http://www.w3.org/2000/svg">
<path d="M196.369 492.644C197.509 501.547 188.719 509.489 181.104 509.671C172.788 509.87 167.446 513.555 161.947 518.226C154.937 524.18 146.785 521.062 137.511 510.144C131.463 503.024 119.394 485.053 110.792 484.91C108.453 484.871 102.904 477.88 101.201 475.795C98.3514 472.308 96.5872 463.374 96.8116 460.128C96.965 457.91 96.4681 454.123 96.1516 451.652C95.908 449.75 96.493 446.262 95.8444 444.602C94.1589 440.287 96.6938 437.448 95.0574 432.476C89.0519 414.229 71.8179 403.421 61.4878 386.965C58.7703 382.636 61.446 380.658 60.9706 376.946C60.6576 374.501 61.6673 372.81 60.8255 370.164C60.1113 367.92 60.6907 367.56 61.0855 365.882C61.4578 364.298 59.351 362.43 59.3137 360.685C59.111 351.215 61.3661 347.772 67.2718 342.756C71.9345 338.795 80.0549 336.939 81.854 330.37C82.2803 328.813 83.0445 323.209 81.7578 321.313C78.448 316.434 79.9876 310.812 79.4742 306.802C78.2261 297.056 78.0495 287.391 81.4008 279.984C84.4647 273.211 91.7139 268.99 97.0681 264.442C102.523 259.808 105.314 254.206 105.405 245.481C105.46 240.109 107.694 239.445 110.71 236.405C112.595 234.505 112.985 227.594 112.56 224.273C111.961 219.598 113.635 217.471 116.753 214.822C119.628 212.38 119.429 207.449 121.991 204.89C124.766 202.117 125.661 198.117 128.822 195.432C132.066 192.676 135.484 193.344 140.584 194.581C148.017 196.384 154.409 190.149 158.85 186.377C164.153 181.872 170.799 179.221 165.958 168.458C163.803 163.665 160.503 158.18 159.241 153.551C158.852 152.122 159.698 151.556 159.504 150.282C159.248 148.608 157.632 146.693 157.239 144.894C156.494 141.481 156.146 140.292 157.436 138.126C158.424 136.469 158.486 133.767 158.733 131.643C159.081 128.655 161.772 127.861 162.503 125.192C162.916 123.681 165.739 123.647 163.963 121.311C162.518 119.411 161.935 117.676 160.345 115.652C157.755 112.355 161.225 107.261 161.206 104.766C161.174 100.56 157.632 95.5196 155.933 91.1704C152.31 81.8969 159.268 77.3374 158.204 69.0345C157.856 66.3179 157.735 57.955 158.904 56.5594C161.121 53.9145 157.088 46.172 157.06 42.4886C157.01 35.8644 143.478 20.8381 138.093 22.958C135.787 23.8655 132.112 23.7158 129.519 24.4524C128.183 24.8319 126.455 26.0935 124.846 25.1724C120.208 22.5178 118.628 22.0107 114.532 18.3966C108.382 12.9684 96.7686 12.935 91.4508 12.9209C81.5498 12.8947 72.4447 11.5129 62.2452 7.46832C57.5535 5.60791 53.3698 3.82242 48.6113 3.00516C45.0374 2.39135 40.5477 2.87268 37.2906 1.65423C31.8774 -0.370815 25.1086 9.91064 20.9762 11.1453C15.2661 12.8512 4.34196 8.7228 0.760019 11.7653" stroke="#F05454" stroke-linecap="round"/>
</svg>
