<svg width="425" height="142" viewBox="0 0 425 142" fill="none" xmlns="http://www.w3.org/2000/svg">
<path d="M1 1C8.59264 1 25.1118 1.0306 30.375 7.64828C34.799 13.2108 37.84 20.3646 42.4607 26.1157C48.9572 34.2016 54.8434 51.2314 67.4714 51.2314C76.9179 51.2314 84.9341 50.6101 94.1607 48.605C100.114 47.3113 108.09 44.715 113.464 49.0154C117.393 52.1587 119.416 56.553 122.78 60.0958C126.996 64.5351 132.574 68.735 135.538 74.049C138.633 79.5989 144.334 80.0743 149.889 80.9435C155.001 81.7434 158.195 86.6889 163.402 86.6889C170.4 86.6889 176.419 87.2269 183.209 88.2484C193.621 89.8149 203.675 102.518 210.654 109.342C221.949 120.388 231.242 133.59 246.911 139.219C263.708 145.253 278.021 134.527 291.812 128.302C302.526 123.467 307.642 109.241 318.25 102.202C331.766 93.2321 347.665 94.0759 363.236 94.0759C371.703 94.0759 378.922 94.9439 385.561 88.823C389.895 84.8267 396.204 82.1047 399.829 77.4963C401.798 74.9925 405.528 70.5226 408.557 69.2885C413.628 67.2223 418.144 67.4828 424 67.4828" stroke="#F05454" stroke-linecap="round"/>
</svg>
