<?xml version="1.0" encoding="utf-8"?>
<!-- Generator: Adobe Illustrator 28.4.1, SVG Export Plug-In . SVG Version: 6.00 Build 0)  -->
<svg version="1.1" id="Layer_1" xmlns="http://www.w3.org/2000/svg" xmlns:xlink="http://www.w3.org/1999/xlink" x="0px" y="0px"
	 viewBox="0 0 325.5 127.7" style="enable-background:new 0 0 325.5 127.7;" xml:space="preserve">
<style type="text/css">
	.st0{fill-rule:evenodd;clip-rule:evenodd;}
</style>
<g id="Layer_2_00000142869541594843655670000004117823238621386660_">
	<g id="Layer_1-2">
		<path d="M37.5,71.5c0.3,7.6-3.6,13.5-3.4,21l-0.2,0.2l-0.3-0.4C33.3,84.8,30,78.4,30.3,71C32.7,71,35.1,71.1,37.5,71.5"/>
		<path d="M28.6,78.2c1.4,4.7,0.7,10.3,2.3,15c3.6,6.6,0,14.4-0.3,21.4l-2.4,12.8c-9.5-1-19.4-8.3-22.6-17.7
			c-4.3-11.6-0.8-24.6,8.7-32.4c3.6-2.8,7.8-4.7,12.3-5.7C27.5,73.7,28.1,75.9,28.6,78.2"/>
		<path d="M52.7,79.5c-2.1,4-5.2,7.5-7.5,11.4c-2.5,4.6-6.5,8.5-8.6,13.2c-0.8,0.9-1.7,2.2-2.9,2.5c-0.3-2.5,1-4.8,1-7.3
			c0.9-5.5,1.3-11.2,3.6-16.1l2.4-10.9C45.1,73.9,49.3,75.9,52.7,79.5"/>
		<path d="M58.5,110.4c-4.2,10.3-14.9,17-25.9,17.3c-0.8-2-0.6-4.3-0.9-6.5c-0.6-8.3,6.9-13.6,10-20.6c2.2-4.7,6.4-8.9,10.3-12.4
			c1.2-1.8,2.2-3.7,3-5.7C61.1,89.9,62.4,101.4,58.5,110.4"/>
		<path class="st0" d="M82.7,28.5c0.6,0.3,1.2,0.6,1.9,0.8c0.8,0.2,1.6,0.4,2.4,0.4c2.3,0,4.5-0.8,6.3-2.2c1.9-1.5,2.8-3.9,2.8-7.3
			c0-3.6-0.8-6.2-2.5-7.9S89.4,9.7,86,9.7h-3.3V28.5 M77,9.7h-5.5V8.8h15.8c4.5,0,8,0.9,10.7,2.6s4,4.5,4,8.3
			c0.2,3.3-1.4,6.4-4.2,8.1c-3,1.8-6.4,2.8-9.9,2.7c-1.8,0.1-3.6-0.2-5.2-0.9v17.5h5.7V48H71.5v-0.9H77V9.7z"/>
		<path class="st0" d="M124.5,47.9c2.7,0.1,5.3-1,7-3.1c1.7-2.2,2.9-4.7,3.4-7.4c0.6-3,0.9-6,0.9-9c0-3-0.3-6-0.8-9
			c-0.5-2.7-1.6-5.2-3.3-7.3c-1.7-2.1-4.4-3.3-7.1-3.1c-2.7-0.1-5.3,1-7,3.1c-1.7,2.2-2.9,4.7-3.4,7.4c-0.6,2.9-0.9,5.9-0.9,8.9
			c0,3,0.3,6,0.8,9c0.5,2.7,1.6,5.2,3.3,7.3C119.1,46.8,121.7,48,124.5,47.9 M124.5,7.9c4.7,0,8.8,2,12.3,6c3.5,4,5.4,9.1,5.2,14.4
			c0.1,5.3-1.7,10.4-5.2,14.4c-3.4,4-7.6,6-12.3,6s-8.9-2-12.3-6c-3.5-4-5.3-9.1-5.2-14.4c-0.1-5.3,1.7-10.4,5.1-14.4
			C115.6,10,119.7,8,124.5,7.9L124.5,7.9z"/>
		<path class="st0" d="M157.2,27.4h2.8c3.4,0,6-0.7,7.8-2s2.6-3.6,2.6-6.7c0.1-2.3-0.6-4.6-2-6.5c-1.3-1.7-3.8-2.5-7.4-2.5h-3.8
			L157.2,27.4 M151.5,9.7H146V8.8h17c3.3-0.1,6.6,0.6,9.6,2.1c2.5,1.4,3.7,4,3.7,7.8c0.2,2.7-1.3,5.3-3.7,6.5
			c-2.5,1.4-5.3,2.2-8.2,2.6c3.5,0.4,6.1,1.1,7.6,2.4c1.6,1.2,2.6,3.5,3,7l0.8,6.8c0,1,0.4,2,1.1,2.8c0.5,0.4,1.1,0.7,1.8,0.7
			c0.8,0,1.6-0.2,2.3-0.5l0.3,0.7c-0.6,0.2-1.3,0.4-2,0.5c-0.9,0.1-1.7,0.2-2.6,0.2c-3.1,0-5-0.7-5.9-2.1s-1.6-4-2-7.8l-0.4-3.3
			c-0.1-1.8-0.7-3.6-1.9-5c-1-1.1-2.9-1.7-5.8-1.7h-3.6v18.8h5.7V48H146v-0.9h5.5L151.5,9.7z"/>
		<path d="M197.3,9.7h-1.2c-5,0-8.3,0.6-9.8,1.9c-1.5,1.3-2.3,4.2-2.3,8.7h-0.9V8.8h33.9v11.5h-0.9c0-4.5-0.8-7.4-2.3-8.6
			s-4.8-1.9-9.8-1.9H203v37.3h5.7V48h-17.1v-0.9h5.7V9.7"/>
		<path class="st0" d="M238.7,47.9c2.7,0.1,5.3-1,7-3.1c1.7-2.2,2.9-4.7,3.4-7.4c0.6-3,0.9-6,0.9-9c0-3-0.2-6-0.8-9
			c-0.5-2.7-1.6-5.2-3.3-7.3c-1.7-2.1-4.4-3.3-7.1-3.1c-2.7-0.1-5.3,1-7,3.1c-1.7,2.2-2.9,4.7-3.4,7.4c-0.6,2.9-0.9,5.9-0.9,8.9
			c0,3,0.2,6,0.8,9c0.5,2.7,1.6,5.2,3.3,7.3C233.4,46.8,236,48,238.7,47.9 M238.7,7.9c4.7,0,8.8,2,12.3,6c3.5,4,5.4,9.1,5.2,14.4
			c0.1,5.3-1.7,10.4-5.2,14.4c-3.4,4-7.6,6-12.3,6s-8.9-2-12.3-6c-3.5-4-5.4-9.1-5.2-14.4c-0.1-5.3,1.7-10.4,5.2-14.4
			C229.8,10,234,8,238.7,7.9L238.7,7.9z"/>
		<path d="M0,0v56.8h66.1V0H0z M46.7,9.8h-1.4c-0.9-0.1-1.7,0.4-2.2,1.1c-0.5,1.1-0.8,2.3-0.7,3.5v20.7c0,4.2-1.2,7.5-3.6,9.9
			c-2.4,2.4-6.1,3.6-11,3.6c-4.6,0-8.2-1.2-10.9-3.7c-2.7-2.5-4.1-5.8-4.1-10.1V9.8H8.4v-1h17.5v1h-4.5v24.4c0,4.1,0.7,7.2,2,9.3
			c1.4,2.1,3.9,3.6,7.7,3.2c3-0.3,4.7-1,6.6-2.9s2.8-4.7,2.8-8.3v-21c0.1-1.2-0.2-2.5-0.8-3.6c-0.5-0.8-1.4-1.2-2.4-1.1h-1.6v-1h11
			L46.7,9.8z M55.5,47.2c-1.6,1.5-4,1.5-5.6,0c-0.7-0.7-1.2-1.7-1.1-2.8c0-2.2,1.8-3.9,3.9-3.9s3.9,1.8,3.9,3.9
			C56.6,45.5,56.2,46.5,55.5,47.2z"/>
		<path d="M108.2,72.1l-0.9,1.9c-0.9-0.6-1.9-0.9-2.9-0.9c-1.1,0-2.2,0.4-3,1.2c-0.8,0.8-1.2,1.9-1.2,3c-0.1,2.4,1.7,4.4,4,4.5
			c0.2,0,0.4,0,0.6,0c1,0,1.9-0.2,2.8-0.6l0.4,2c-0.5,0.3-1.1,0.5-1.7,0.6c-0.3,0.1-0.7,0.1-1,0.2c-0.4,0-0.7,0-1.1,0
			c-1.7,0.1-3.3-0.5-4.6-1.6c-1.4-1.3-2.2-3.2-2.1-5.1c0-1.8,0.7-3.5,1.9-4.8c1.3-1.2,3-1.8,4.8-1.8
			C105.7,70.8,107.1,71.2,108.2,72.1z M120.7,78.9c0,0.9-0.1,1.8-0.4,2.7c-0.3,0.7-0.7,1.2-1.3,1.6c-1.1,0.7-2.3,1-3.6,0.9
			c-1.3,0.1-2.5-0.3-3.6-0.9c-0.6-0.4-1.1-0.9-1.4-1.6c-0.3-0.9-0.4-1.8-0.4-2.7v-7.7h2.4V79c0,1.9,1,2.8,3,2.8
			c1.4,0.2,2.6-0.8,2.8-2.2c0-0.2,0-0.4,0-0.7v-7.9h2.4V78.9z M267,72l-1,2.2c-1-0.5-2.1-0.8-3.3-0.9c-0.5,0-1,0.1-1.4,0.3
			c-0.3,0.2-0.5,0.5-0.5,0.9c0,0.5,0.4,0.9,1.2,1.3c1.4,0.6,2.6,1.5,3.8,2.4c0.6,0.6,0.9,1.4,0.9,2.3c0,1-0.4,2-1.1,2.6
			c-1,0.7-2.1,1.1-3.3,1h-0.6l-0.6-0.1c-0.9-0.2-1.8-0.5-2.7-0.9l-0.3-0.2l-0.5-0.2l1-2.2l1.1,0.6c0.2,0.1,0.5,0.2,0.7,0.3
			c0.6,0.2,1.2,0.4,1.8,0.4c0.5,0,1-0.1,1.4-0.3c0.3-0.2,0.5-0.6,0.5-0.9c0-0.5-0.4-0.9-1.1-1.4l-2-1.1c-0.9-0.4-1.6-1-2.3-1.7
			c-0.4-0.5-0.6-1.2-0.6-1.8c0-0.6,0.2-1.2,0.5-1.8c0.1-0.2,0.2-0.4,0.4-0.5c0.2-0.2,0.3-0.3,0.5-0.4c1-0.6,2.1-0.9,3.2-0.8
			c0.8,0,1.6,0.1,2.4,0.3c0.3,0.1,0.6,0.2,0.8,0.3L267,72z M325.5,72l-1,2.2c-1-0.5-2.1-0.8-3.3-0.9c-0.5,0-1,0.1-1.4,0.3
			c-0.3,0.2-0.5,0.5-0.5,0.9c0,0.5,0.4,0.9,1.2,1.3c1.4,0.7,2.6,1.5,3.8,2.4c0.6,0.6,0.9,1.4,0.9,2.3c0.1,1-0.4,2-1.2,2.6
			c-1,0.7-2.1,1.1-3.3,1h-0.6l-0.5-0.1c-0.9-0.2-1.8-0.5-2.7-0.9l-0.3-0.2l-0.5-0.2l1-2.2l1.1,0.6c0.2,0.1,0.5,0.2,0.7,0.3
			c0.6,0.2,1.2,0.4,1.8,0.4c0.5,0,1-0.1,1.4-0.3c0.3-0.2,0.5-0.6,0.5-0.9c0-0.5-0.4-0.9-1.1-1.4l-2-1.1c-0.9-0.4-1.6-1-2.3-1.7
			c-0.4-0.5-0.6-1.2-0.6-1.8c0-0.6,0.2-1.2,0.5-1.8c0.1-0.2,0.2-0.4,0.4-0.5c0.2-0.2,0.3-0.3,0.5-0.4c1-0.6,2.1-0.9,3.2-0.8
			c0.8,0,1.6,0.1,2.4,0.3c0.3,0.1,0.6,0.2,0.8,0.3L325.5,72z M85.1,73.2h-5.4v3.3h4.5v2h-4.5v5.3h-2.4V71.1h7.9V73.2z M97,83.8h-2.6
			l-1-3.1h-4.2l-1,3.1h-2.6l4.6-12.7h2.2L97,83.8z M131.5,83.8h-7.6V71.1h2.4v10.7h5.2V83.8z M144.9,77.4c0,1.7-0.6,3.3-1.8,4.6
			c-1.4,1.3-3.2,2-5.1,1.8h-4.7V71.1h4.7c1.9-0.1,3.7,0.6,5.1,1.9C144.3,74.2,144.9,75.8,144.9,77.4L144.9,77.4z M156.8,83.8h-2.6
			l-1-3.1h-4.3l-1,3.1h-2.5l4.6-12.7h2.2L156.8,83.8z M170,77.4c0,1.7-0.6,3.3-1.8,4.6c-1.4,1.3-3.2,2-5.1,1.9h-4.7V71.1h4.7
			c1.9-0.1,3.8,0.5,5.1,1.9C169.4,74.2,170,75.8,170,77.4z M180.2,83.8h-8V71.1h7.7v2.1h-5.3v3.1h4.4v2.1h-4.4v3.4h5.6L180.2,83.8z
			 M198.9,77.4c0,1.7-0.6,3.3-1.8,4.6c-1.4,1.3-3.2,2-5.1,1.8h-4.7V71.1h4.7c1.9-0.1,3.8,0.6,5.1,1.9
			C198.3,74.2,198.9,75.8,198.9,77.4L198.9,77.4z M209.1,83.8h-8V71.1h7.7v2.1h-5.3v3.1h4.4v2.1h-4.4v3.4h5.6L209.1,83.8z
			 M225.3,80.5c0,2.3-1.3,3.4-3.9,3.4h-5.2V71.1h4.6c1.1-0.1,2.3,0.2,3.2,0.8c0.7,0.6,1,1.4,1,2.3c0,0.4-0.1,0.7-0.2,1.1
			c-0.1,0.3-0.3,0.6-0.6,0.9c-0.3,0.3-0.6,0.5-0.9,0.6c-0.4,0.2-0.8,0.3-1.2,0.3c0.9,0,1.7,0.3,2.3,0.9
			C225,78.7,225.3,79.6,225.3,80.5L225.3,80.5z M235.6,83.8h-8V71.1h7.7v2.1h-5.3v3.1h4.4v2.1h-4.4v3.4h5.6L235.6,83.8z M245.6,83.8
			H238V71.1h2.4v10.7h5.2L245.6,83.8z M257.2,83.8h-2.5l-1-3.1h-4.2l-1,3.1h-2.5l4.6-12.7h2.2L257.2,83.8z M283.8,83.8h-2.5l-1-3.1
			H276l-1,3.1h-2.5l4.6-12.7h2.2L283.8,83.8z M294.8,83.8h-2.6l-2.9-5.1H288v5.1h-2.4V71.1h4.2c0.5,0,0.9,0,1.2,0s0.7,0.1,0.9,0.2
			c0.5,0.1,1,0.4,1.3,0.8c0.7,0.7,1.1,1.7,1,2.8c0,0.8-0.2,1.7-0.7,2.4c-0.5,0.6-1.2,1-2,1.2L294.8,83.8z M305.3,73.2h-3.8v10.6H299
			V73.2h-3.8v-2.1h10L305.3,73.2z M315.2,83.8h-8V71.1h7.7v2.1h-5.3v3.1h4.4v2.1h-4.4v3.4h5.6L315.2,83.8z M222.6,80.2
			c0-1.2-0.8-1.8-2.3-1.8h-1.6v3.5h1.6c0.5,0,1-0.1,1.5-0.2C222.3,81.4,222.6,80.8,222.6,80.2L222.6,80.2z M142.3,77.5
			c0.1-1.3-0.5-2.6-1.5-3.5c-0.9-0.6-1.9-0.8-3-0.8h-2v8.4h1.9c1.2,0.1,2.4-0.3,3.3-1.1C141.9,79.8,142.3,78.6,142.3,77.5
			L142.3,77.5z M167.4,77.5c0.1-1.3-0.5-2.6-1.5-3.5c-0.9-0.6-1.9-0.8-3-0.8H161v8.4h1.9c1.2,0.1,2.4-0.3,3.3-1.1
			C167,79.8,167.5,78.6,167.4,77.5L167.4,77.5z M196.3,77.5c0.1-1.3-0.5-2.6-1.5-3.5c-0.9-0.6-1.9-0.8-3-0.8h-2v8.4h1.9
			c1.2,0.1,2.4-0.3,3.3-1.1C195.9,79.8,196.3,78.6,196.3,77.5L196.3,77.5z M92.8,78.6L91.3,74l-1.5,4.6L92.8,78.6z M152.5,78.6
			l-1.5-4.6l-1.5,4.6L152.5,78.6z M253,78.6l-1.5-4.6l-1.5,4.6L253,78.6z M279.5,78.6l-1.5-4.6l-1.5,4.6L279.5,78.6z M291.7,74.9
			c0.1-0.5-0.1-1-0.5-1.3c-0.5-0.3-1.1-0.4-1.7-0.4h-1.6v3.5h1.6C291,76.7,291.7,76.1,291.7,74.9L291.7,74.9z M222.2,74.7
			c0-1.1-0.6-1.6-2-1.6h-1.6v3.3h1.4C221.5,76.3,222.2,75.8,222.2,74.7L222.2,74.7z"/>
		<path d="M87.2,101.6c0.1,1.3-0.4,2.7-1.5,3.5c-1,0.8-2.2,1.2-3.5,1.2c-1.3,0-2.5-0.4-3.5-1.2c-1-0.9-1.6-2.2-1.5-3.5v-8.4h1.6v7.9
			c0,0.6,0,1.1,0.1,1.7c0.1,0.4,0.3,0.7,0.6,1c1.5,1.5,3.8,1.5,5.3,0c0,0,0,0,0,0c0.3-0.3,0.5-0.6,0.6-1c0.1-0.6,0.2-1.1,0.1-1.7
			v-7.9h1.6V101.6z M120.4,93.3l-4.9,13h-1l-5-13h1.7l3.8,9.9c0.1,0.2,0.1,0.4,0.1,0.6c0-0.2,0-0.4,0.1-0.6l3.6-9.9H120.4z
			 M151.4,94.1l-0.7,1.3c-0.3-0.2-0.5-0.3-0.8-0.4c-0.2-0.1-0.4-0.2-0.6-0.2c-0.6-0.2-1.2-0.3-1.8-0.3c-0.6,0-1.2,0.1-1.8,0.5
			c-0.4,0.3-0.7,0.8-0.7,1.3c0,0.5,0.2,0.9,0.6,1.2c0.8,0.6,1.6,1.1,2.5,1.6c0.7,0.4,1.4,0.8,2,1.3c0.7,0.6,1,1.4,1,2.3
			c0,1-0.4,1.9-1.1,2.6c-0.9,0.7-2,1-3.1,1c-0.8,0-1.6-0.1-2.3-0.4c-0.6-0.2-1.1-0.6-1.6-0.9l0.8-1.2c0.3,0.2,0.5,0.4,0.8,0.5
			c0.2,0.1,0.4,0.2,0.6,0.3c0.6,0.2,1.2,0.3,1.8,0.3c0.6,0,1.3-0.1,1.8-0.5c0.4-0.4,0.6-0.9,0.6-1.4c0-0.3,0-0.6-0.2-0.9
			c-0.3-0.4-0.6-0.8-1.1-1l-0.8-0.4c-0.4-0.2-0.8-0.4-1.4-0.7c-1.8-1-2.7-2.1-2.7-3.3c0-1,0.4-1.9,1.2-2.5c0.9-0.6,1.9-1,3-0.9
			c0.7,0,1.4,0.1,2.1,0.3C150.4,93.6,150.9,93.8,151.4,94.1L151.4,94.1z M239.6,99.6c0.1,1.8-0.6,3.5-1.8,4.7
			c-1.2,1.2-2.8,1.9-4.6,1.9c-1.7,0.1-3.4-0.6-4.6-1.9c-2.4-2.7-2.4-6.8,0-9.4c1.2-1.3,2.9-2,4.6-1.9c1.7-0.1,3.4,0.6,4.6,1.9
			C239.1,96.1,239.7,97.9,239.6,99.6L239.6,99.6z M269.8,99.6c0.1,1.8-0.6,3.5-1.8,4.7c-1.2,1.2-2.8,1.9-4.6,1.9
			c-1.7,0.1-3.4-0.6-4.6-1.9c-2.4-2.7-2.4-6.8,0-9.4c1.2-1.3,2.9-2,4.6-1.9c1.7,0,3.4,0.7,4.5,1.9C269.2,96.2,269.9,97.9,269.8,99.6
			L269.8,99.6z M306.1,99.6c0.1,1.8-0.6,3.5-1.8,4.7c-1.2,1.2-2.8,1.9-4.6,1.9c-1.7,0.1-3.4-0.6-4.6-1.9c-2.4-2.7-2.4-6.8,0-9.4
			c1.2-1.3,2.9-2,4.6-1.9c1.7-0.1,3.4,0.6,4.6,1.9C305.6,96.1,306.2,97.9,306.1,99.6L306.1,99.6z M101.4,106.1h-1.8l-6.4-9.9
			c0-0.1-0.1-0.1-0.1-0.2c-0.1-0.1-0.1-0.2-0.2-0.2c-0.1-0.2-0.3-0.5-0.3-0.8v11h-1.6V93.3h2.1l6.3,9.7l0.1,0.2c0,0,0.1,0.1,0.1,0.1
			c0,0.1,0.1,0.1,0.1,0.2c0,0.1,0.1,0.2,0.1,0.4c0,0,0,0.1,0,0.1c0,0,0,0.1,0,0.1V93.3h1.6L101.4,106.1z M107.2,106h-1.6V93.3h1.6
			V106z M130,106h-7.3V93.3h7.1v1.3h-5.6v4.2h4.6v1.3h-4.6v4.5h5.7V106z M141.6,106h-1.8l-3.5-5.4h-1.7v5.4h-1.6V93.3h3.9
			c0.4,0,0.7,0,1,0c0.3,0,0.5,0.1,0.8,0.2c0.2,0.1,0.4,0.2,0.6,0.3c0.2,0.1,0.4,0.3,0.6,0.5c0.7,0.6,1,1.5,1,2.5c0,1-0.4,2-1.1,2.6
			c-0.5,0.5-1.2,0.9-1.9,1L141.6,106z M156.1,106h-1.6V93.3h1.6V106z M171,99.6c0,1.7-0.6,3.3-1.7,4.6c-0.5,0.6-1.2,1.1-1.9,1.4
			c-0.9,0.3-1.8,0.4-2.8,0.4h-4.2V93.3h4.2c1.7-0.1,3.3,0.6,4.5,1.7C170.4,96.2,171.1,97.8,171,99.6z M183.2,106h-1.7l-1.3-3.8h-5.1
			l-1.3,3.8h-1.7l4.7-13.1h1.7L183.2,106z M196.1,99.6c0,1.7-0.6,3.3-1.7,4.6c-0.5,0.6-1.2,1.1-1.9,1.4c-0.9,0.3-1.8,0.4-2.8,0.4
			h-4.2V93.3h4.2c1.7-0.1,3.4,0.6,4.6,1.7C195.5,96.2,196.2,97.9,196.1,99.6L196.1,99.6z M206.5,106h-7.3V93.3h7.1v1.3h-5.6v4.2h4.6
			v1.3h-4.6v4.5h5.7V106z M225,99.6c0,1.7-0.6,3.3-1.7,4.6c-0.5,0.6-1.2,1.1-1.9,1.4c-0.9,0.3-1.8,0.4-2.8,0.4h-4.2V93.3h4.2
			c1.7-0.1,3.3,0.6,4.6,1.7C224.4,96.2,225.1,97.8,225,99.6z M255.6,97c0,0.6-0.1,1.2-0.3,1.8c-0.2,0.5-0.5,1-0.9,1.4
			c-0.4,0.4-0.9,0.7-1.4,0.9c-0.6,0.2-1.2,0.3-1.9,0.3h-0.7l-1.2-0.1v4.8h-1.6V93.3h4c1.1-0.1,2.2,0.3,3.1,1
			C255.3,95,255.7,96,255.6,97z M281.5,106h-1.8l-3.5-5.4h-1.7v5.4h-1.6V93.3h3.9c0.4,0,0.7,0,1,0c0.3,0,0.5,0.1,0.8,0.2
			c0.2,0.1,0.4,0.2,0.6,0.3c0.2,0.1,0.4,0.3,0.6,0.5c0.7,0.6,1,1.5,1,2.5c0,1-0.4,2-1.1,2.6c-0.5,0.5-1.2,0.9-1.9,1L281.5,106z
			 M292.2,94.6H288V106h-1.6V94.6h-4.2v-1.3h10V94.6z M237.9,99.6c0-1.3-0.5-2.6-1.4-3.6c-1.5-1.8-4.2-2.1-6-0.6
			c-0.2,0.2-0.4,0.4-0.6,0.6c-1.8,2.1-1.8,5.2,0,7.3c1.5,1.8,4.2,2,6.1,0.5c0.2-0.2,0.3-0.3,0.5-0.5C237.5,102.3,238,101,237.9,99.6
			z M268.1,99.6c0-1.3-0.5-2.6-1.4-3.6c-1.5-1.8-4.2-2.1-6-0.6c-0.2,0.2-0.4,0.4-0.6,0.6c-1.8,2.1-1.8,5.2,0,7.3
			c1.5,1.8,4.2,2,6.1,0.5c0.2-0.2,0.3-0.3,0.5-0.5C267.7,102.3,268.2,101,268.1,99.6z M304.4,99.6c0-1.3-0.5-2.6-1.4-3.6
			c-1.5-1.8-4.2-2.1-6-0.6c-0.2,0.2-0.4,0.4-0.6,0.6c-1.8,2.1-1.8,5.2,0,7.3c1.5,1.8,4.2,2,6.1,0.5c0.2-0.2,0.3-0.3,0.5-0.5
			C304,102.3,304.4,101,304.4,99.6z M169.3,99.5c0-1.3-0.5-2.6-1.4-3.5c-0.9-0.9-2.2-1.5-3.6-1.4h-2.4v10h2.4
			c1.3,0.1,2.5-0.3,3.4-1.2c0.2-0.3,0.5-0.5,0.6-0.8c0.2-0.3,0.4-0.7,0.5-1c0.1-0.3,0.2-0.7,0.3-1.1
			C169.3,100.2,169.3,99.9,169.3,99.5z M194.4,99.5c0-1.3-0.5-2.6-1.4-3.5c-0.9-0.9-2.2-1.5-3.6-1.4H187v10h2.4
			c1.3,0.1,2.5-0.3,3.4-1.2c0.2-0.3,0.5-0.5,0.6-0.8c0.2-0.3,0.4-0.7,0.5-1c0.1-0.3,0.2-0.7,0.3-1.1
			C194.4,100.2,194.4,99.9,194.4,99.5z M223.3,99.5c0-1.3-0.5-2.6-1.4-3.5c-0.9-0.9-2.2-1.5-3.6-1.4h-2.4v10h2.4
			c1.3,0.1,2.5-0.3,3.4-1.2c0.2-0.3,0.5-0.5,0.6-0.8c0.2-0.3,0.4-0.7,0.5-1c0.1-0.3,0.2-0.7,0.3-1.1
			C223.3,100.2,223.3,99.9,223.3,99.5z M179.7,100.8l-2.1-5.8l-2.1,5.8L179.7,100.8z M254,97.1c0-0.7-0.2-1.5-0.7-2
			c-0.6-0.4-1.3-0.6-2-0.5h-2.2v5.2c0.6,0.1,1.1,0.1,1.7,0.1c0.6,0,1.1-0.1,1.7-0.2c0.5-0.2,0.9-0.6,1.1-1
			C253.8,98.2,254,97.7,254,97.1z M139.3,96.7c0.1-0.7-0.2-1.3-0.7-1.8c-0.6-0.3-1.2-0.4-1.9-0.4h-2.1v4.6h2.1
			c1.2,0.2,2.3-0.7,2.5-1.9C139.2,97.1,139.2,96.9,139.3,96.7L139.3,96.7z M279.1,96.7c0.1-0.7-0.2-1.3-0.7-1.8
			c-0.6-0.3-1.2-0.4-1.8-0.4h-2.1v4.6h2.1c1.2,0.2,2.3-0.7,2.5-1.9C279.1,97.1,279.1,96.9,279.1,96.7L279.1,96.7z"/>
	</g>
</g>
</svg>
