<?xml version="1.0" encoding="utf-8"?>
<!-- Generator: Adobe Illustrator 28.4.1, SVG Export Plug-In . SVG Version: 6.00 Build 0)  -->
<svg version="1.1" id="Layer_1" xmlns="http://www.w3.org/2000/svg" xmlns:xlink="http://www.w3.org/1999/xlink" x="0px" y="0px"
	 viewBox="0 0 187.2 58" style="enable-background:new 0 0 187.2 58;" xml:space="preserve">
<g id="Layer_2_00000181065218323716790620000010662977009459220879_">
	<g id="Layer_1-2">
		<g id="logos">
			<path d="M158,25.4c-9.4-2.5-11.6-3.5-11.6-7c0-2.5,2.2-4.6,6.8-4.6c5.1,0.5,10,2.3,14.1,5.4l5.7-8.7c-5.6-4.5-12.6-6.9-19.8-6.8
				c-8.7,0-15.3,4-17.8,10.5c-5.6-5.7-13.3-8.9-21.3-8.7H95.4v32.6L81.4,5.2H70.9L52.8,47.7H33.3l8.7-6.8C51.4,33.6,55.9,29,55.9,20
				c0-10.2-7-16.7-18.4-16.7c-9.4,0-14.6,3.7-20,11l8.4,6.8c4-4.8,7-7.3,11-7.3h1.1c3.6,0.2,6.4,3.4,6.2,7c0,4.6-2.5,7.6-9.1,13
				l-18,14.5V58h43.2l4-10.2h35.1l4.3,9.7h10.2c16.2,0,27.2-10.8,27.8-25.1c3.2,1.6,6.7,2.8,10.2,3.5c9,2.2,10.8,3.7,10.8,6.8
				s-2.8,5.1-7.6,5.1c-3.8,0-7.5-1-10.8-3l-5.9,9.4c5.1,2.7,10.7,4.1,16.5,4c11.6,0,19.8-5.9,19.8-16.7V41
				C175,32.2,168.8,28.2,158,25.4z M68.7,37.6l7.6-18.6l7.9,18.6H68.7z M130.2,33.8c-0.3,8.1-7.1,14.4-15.2,14.1c-0.1,0-0.3,0-0.4,0
				h-7V16.3h8.4c8.2,0.3,14.6,7.2,14.4,15.4c0,0.1,0,0.2,0,0.2C130.2,32.5,130.2,33.2,130.2,33.8z"/>
			<rect x="176.7" y="47.4" width="10.5" height="10.2"/>
			<polygon points="12.4,57.9 0,57.9 0,24.3 12.4,17.7 			"/>
			<rect x="0.3" width="12.4" height="12.1"/>
		</g>
	</g>
</g>
</svg>
